<?xml version="1.0" standalone="no"?>
<!DOCTYPE svg PUBLIC "-//W3C//DTD SVG 20010904//EN"
 "http://www.w3.org/TR/2001/REC-SVG-20010904/DTD/svg10.dtd">
<svg version="1.0" xmlns="http://www.w3.org/2000/svg"
 width="511.000000pt" height="121.000000pt" viewBox="0 0 511.000000 121.000000"
 preserveAspectRatio="xMidYMid meet">

<g transform="translate(0.000000,121.000000) scale(0.100000,-0.100000)"
fill="#000000" stroke="none">
<path d="M3030 1130 c0 -5 -13 -10 -29 -10 -17 0 -31 -6 -35 -16 -3 -9 -11
-12 -18 -8 -18 11 -89 14 -82 3 3 -5 14 -9 24 -9 10 0 22 -4 25 -10 4 -6 -16
-8 -56 -5 -66 4 -92 14 -43 16 l29 1 -30 8 c-16 5 -41 12 -54 16 -17 5 -22 4
-17 -5 5 -7 -4 -13 -24 -18 -23 -4 -28 -8 -18 -15 9 -7 5 -8 -12 -3 -38 9 -97
16 -82 9 23 -11 12 -26 -15 -20 l-28 6 25 -15 c21 -12 22 -14 6 -15 -12 0 -16
-5 -12 -15 3 -9 0 -15 -9 -15 -8 0 -15 -4 -15 -10 0 -5 -10 -10 -21 -10 -18 0
-19 2 -9 15 7 8 19 15 26 15 8 0 14 7 14 17 0 15 -1 15 -18 0 -24 -22 -22 -23
-82 18 -29 19 -62 35 -74 34 -11 0 -15 -3 -8 -6 15 -6 16 -23 1 -23 -11 0 -39
-24 -39 -34 0 -3 6 -3 13 -1 6 2 28 0 47 -5 27 -6 19 -7 -35 -4 -49 3 -66 2
-55 -6 12 -8 11 -10 -7 -10 -13 0 -23 -4 -23 -10 0 -5 9 -10 20 -10 11 0 20
-4 20 -10 0 -9 -18 -14 -49 -13 -9 1 -10 -2 -3 -9 8 -8 19 -8 39 0 34 14 99
19 109 9 4 -4 -15 -8 -42 -8 l-49 -2 40 -6 40 -7 -33 -5 c-50 -9 -152 11 -145
27 4 11 -10 14 -68 12 l-74 -1 55 -6 c33 -4 54 -11 53 -17 -1 -7 13 -15 32
-18 19 -4 35 -11 35 -16 0 -11 -33 -13 -44 -3 -15 15 -34 10 -40 -10 -4 -17
-8 -19 -18 -9 -6 6 -20 12 -31 12 -10 0 -15 5 -12 10 4 6 3 9 -2 8 -4 -1 -19
2 -33 7 -24 9 -23 10 15 16 34 5 29 6 -30 8 -38 1 -83 8 -100 16 -30 14 -30
14 15 9 25 -3 56 -7 68 -10 14 -3 21 -1 18 5 -4 6 13 11 41 14 l48 3 -48 2
c-27 1 -46 6 -43 11 3 5 45 7 93 5 l88 -3 -65 9 c-36 5 -81 14 -100 19 -29 7
-31 9 -10 10 14 0 42 -4 63 -10 47 -13 213 15 221 37 3 8 1 14 -4 14 -6 0 -10
-4 -10 -10 0 -5 -16 -12 -36 -16 -32 -6 -40 -3 -73 30 -23 23 -46 36 -61 35
l-25 -1 25 -8 c24 -8 23 -8 -7 -9 -35 -1 -47 -21 -13 -21 11 0 20 -4 20 -10 0
-5 8 -10 18 -11 21 -1 -23 -17 -52 -18 -20 -1 -20 -1 0 14 20 15 20 15 -31 19
-11 0 -26 -5 -33 -11 -8 -8 -39 -13 -71 -13 -31 0 -61 -4 -66 -9 -13 -11 -145
-21 -145 -11 0 5 -8 11 -17 13 -11 3 -7 5 10 6 16 0 26 5 22 11 -3 6 -2 10 4
10 5 0 11 -5 13 -12 3 -7 11 -9 24 -3 10 4 25 7 33 6 7 -1 10 2 6 8 -3 6 -1
11 6 11 23 0 -4 16 -47 28 -56 16 -63 15 -59 -8 2 -13 -2 -20 -11 -20 -8 0
-12 -4 -9 -10 9 -14 -38 -13 -53 2 -9 9 -18 9 -37 0 -31 -14 -60 -2 -70 28 -4
14 -15 20 -33 19 -17 -1 -21 -3 -9 -6 9 -2 17 -9 17 -13 0 -6 -11 -5 -25 0
-21 8 -30 6 -47 -10 -28 -26 -36 -25 -80 5 -27 18 -49 25 -80 24 l-43 -2 40
-6 c38 -6 39 -7 13 -14 -15 -4 -45 -3 -67 2 -22 5 -42 6 -45 4 -3 -3 -31 -6
-63 -5 l-58 0 43 -10 c23 -5 42 -13 42 -19 0 -5 8 -9 18 -10 22 -1 -24 -17
-53 -18 -20 0 -20 0 0 11 19 11 19 11 0 19 -31 12 -77 11 -70 -2 5 -7 -3 -9
-23 -6 -18 3 -33 0 -36 -6 -3 -9 -5 -8 -5 1 -1 6 -8 12 -16 12 -8 0 -15 8 -15
17 0 11 3 14 10 7 5 -5 29 -8 52 -5 l43 4 -60 13 c-83 18 -90 17 -70 -3 16
-16 16 -17 -1 -30 -16 -12 -15 -13 12 -14 21 -1 23 -3 9 -6 -11 -3 -24 -9 -30
-13 -14 -12 -145 -21 -145 -10 0 5 -8 11 -17 14 -10 3 3 4 30 3 26 -1 47 0 47
3 -1 9 -71 50 -86 50 -8 0 -14 -7 -14 -15 0 -8 5 -15 12 -15 6 0 9 -2 7 -4 -8
-8 -114 16 -129 29 -9 8 -51 15 -105 18 -85 5 -88 5 -50 -8 l40 -13 -39 -1
c-30 -1 -37 -4 -32 -16 4 -10 -1 -15 -14 -15 -11 0 -20 -4 -20 -10 0 -5 -4
-10 -10 -10 -17 0 -11 18 12 40 12 11 17 20 10 20 -6 0 -14 -5 -17 -11 -5 -6
-27 -9 -59 -5 -28 3 -42 2 -32 -1 15 -4 16 -7 5 -15 -9 -6 -3 -7 21 -2 47 9
34 -3 -16 -15 l-39 -9 37 -1 c20 -1 39 -5 43 -11 3 -5 11 -7 18 -5 7 2 28 0
47 -5 30 -7 27 -8 -21 -5 -30 2 -63 7 -72 10 -8 4 -24 2 -34 -5 -17 -10 -17
-11 2 -6 11 3 27 1 35 -4 12 -8 11 -10 -7 -10 -13 0 -23 -4 -23 -10 0 -5 9
-10 20 -10 11 0 20 -4 20 -10 0 -9 -18 -14 -49 -13 -9 1 -10 -2 -3 -9 8 -8 19
-8 39 0 34 14 99 19 109 9 4 -4 -15 -8 -42 -8 l-49 -2 40 -6 40 -7 -33 -5
c-50 -9 -152 11 -145 27 4 11 -7 14 -53 13 -54 -2 -56 -2 -19 -8 22 -3 39 -11
38 -18 -1 -6 13 -14 32 -17 19 -4 35 -11 35 -16 0 -11 -33 -13 -44 -3 -14 15
-34 10 -40 -10 -4 -17 -8 -18 -20 -8 -12 11 -21 10 -46 0 -16 -8 -30 -17 -30
-21 0 -5 -6 -8 -14 -8 -8 0 -17 -6 -19 -12 -3 -8 -6 -6 -6 5 -1 9 5 17 12 17
8 0 14 7 14 14 0 11 -5 13 -19 5 -11 -6 -18 -21 -18 -38 0 -25 3 -28 28 -24
15 3 34 7 42 10 30 11 67 10 89 -1 l22 -12 -27 -13 c-15 -6 -24 -14 -21 -17 8
-8 77 7 77 17 0 5 15 9 33 9 24 0 28 3 17 10 -13 8 -12 10 3 10 9 0 17 -5 17
-11 0 -6 9 -8 21 -4 13 4 19 3 16 -2 -4 -6 4 -8 18 -5 14 2 25 8 25 13 0 5 4
9 9 9 5 0 7 -9 4 -19 -6 -22 -68 -37 -105 -25 -20 6 -21 5 -6 -10 9 -9 32 -16
51 -16 31 0 35 -2 29 -22 -3 -13 -11 -26 -18 -31 -7 -4 -11 -14 -8 -22 5 -11
-2 -15 -25 -15 -17 0 -31 -4 -31 -8 0 -4 -13 -13 -30 -19 -18 -7 -30 -7 -30
-2 0 6 -4 8 -9 5 -5 -4 -11 -1 -13 6 -3 7 -7 3 -10 -9 -3 -12 -3 -22 1 -21 22
2 23 -5 1 -22 -20 -16 -22 -20 -7 -20 9 0 17 -4 17 -9 0 -6 12 -6 28 -1 29 8
62 -3 62 -20 0 -5 -7 -15 -15 -24 -9 -8 -16 -18 -15 -21 2 -30 -3 -35 -32 -36
l-33 -1 30 -8 c17 -4 23 -8 15 -9 -8 -1 -27 -9 -42 -19 -25 -16 -26 -21 -15
-36 12 -17 16 -17 38 -4 17 11 44 15 92 13 63 -3 68 -1 64 15 -3 12 1 21 12
23 9 3 4 5 -11 6 -15 0 -33 -6 -42 -14 -21 -22 -50 -20 -41 2 4 10 8 26 10 37
3 10 14 38 25 62 18 35 25 42 38 35 10 -5 51 -7 92 -5 117 7 134 10 138 22 2
7 27 12 60 13 37 0 50 3 38 8 -18 7 -18 8 -2 14 28 11 35 8 33 -14 -1 -11 -10
-25 -20 -31 -14 -7 -17 -7 -13 1 8 13 -23 15 -42 2 -11 -7 -11 -9 2 -14 31
-12 15 -22 -39 -25 -47 -3 -55 0 -55 15 -1 17 -1 17 -11 0 -5 -9 -20 -17 -32
-17 -16 0 -18 -3 -8 -9 11 -7 11 -9 0 -14 -9 -4 -7 -6 5 -6 11 -1 16 -4 13 -8
-4 -3 -1 -13 6 -21 10 -13 9 -15 -5 -9 -10 3 -18 2 -18 -4 0 -6 -5 -7 -10 -4
-6 3 -10 2 -10 -4 0 -5 -8 -12 -18 -14 -9 -3 -1 -5 18 -6 24 -1 31 -4 22 -10
-21 -13 -10 -47 13 -42 11 1 47 6 80 10 33 3 59 9 58 14 -6 17 -2 18 13 3 8
-9 25 -16 37 -17 12 0 43 -3 69 -5 30 -3 49 -1 54 7 4 7 3 10 -4 5 -6 -3 -18
2 -28 11 -11 11 -13 18 -5 21 19 6 12 20 -11 25 -13 2 2 6 32 7 l55 3 -45 7
c-28 4 -36 8 -20 9 21 2 22 4 7 10 -22 8 -24 21 -6 32 9 5 5 10 -13 14 -22 6
-26 11 -23 36 5 39 12 49 36 49 11 0 22 7 26 16 4 12 20 15 77 14 78 -2 117 7
94 22 -10 7 -9 11 6 23 11 8 14 15 8 15 -7 0 -12 9 -12 20 0 12 7 20 16 20 11
0 15 6 11 20 -3 10 0 22 7 25 6 3 -1 3 -17 1 -37 -5 -34 0 15 23 46 21 65 12
47 -21 -8 -14 -6 -16 7 -11 9 3 14 13 11 24 -6 22 0 23 31 6 l23 -13 -27 -13
c-15 -6 -24 -14 -21 -17 8 -8 77 7 77 17 0 5 15 9 33 9 24 0 28 3 17 10 -13 8
-12 10 3 10 9 0 17 -5 17 -11 0 -6 9 -8 21 -4 13 4 19 3 16 -2 -4 -6 4 -8 18
-5 14 2 25 8 25 13 0 5 4 9 9 9 6 0 9 -9 8 -19 -1 -15 -11 -21 -44 -26 -24 -3
-53 -3 -65 1 -20 6 -21 5 -6 -9 10 -10 38 -17 77 -19 66 -3 79 -9 58 -26 -16
-13 -77 -21 -83 -10 -3 4 -11 8 -17 8 -7 0 -6 -4 3 -10 12 -8 11 -10 -7 -10
-12 0 -25 -4 -28 -10 -11 -18 -27 -10 -22 11 4 14 2 18 -6 12 -16 -12 -71 -1
-75 15 -1 7 10 12 30 12 25 0 29 3 18 10 -12 8 -11 10 8 10 12 0 21 -5 20 -12
-2 -6 6 -13 17 -15 16 -3 17 -2 5 6 -8 6 -10 11 -5 11 6 0 3 5 -5 10 -21 13
-60 12 -60 -1 0 -8 -13 -10 -38 -6 -32 6 -38 3 -49 -18 -7 -16 -7 -27 -2 -31
6 -4 6 -11 0 -18 -6 -7 -8 -15 -5 -19 3 -3 -3 -18 -13 -34 -16 -25 -16 -27 0
-14 14 11 18 11 23 -2 3 -9 13 -13 25 -10 21 6 25 -12 10 -37 -6 -8 -7 -19 -3
-24 12 -20 9 -46 -5 -46 -11 0 -10 -4 3 -17 16 -17 16 -18 -7 -24 -23 -7 -23
-7 -2 -8 32 -1 18 -31 -15 -31 l-25 0 22 -24 c22 -23 25 -24 47 -9 19 12 37
14 82 8 31 -4 60 -11 63 -16 6 -11 69 9 69 22 0 17 2 24 11 42 7 12 6 17 -3
17 -8 1 -6 6 5 14 18 14 18 14 0 18 -16 3 -15 6 8 30 24 24 25 27 8 31 -26 7
-24 27 4 28 21 1 21 1 -3 9 l-25 8 25 2 25 2 -25 8 c-23 7 -22 8 10 9 20 1 41
6 47 12 16 16 56 7 59 -13 1 -12 -5 -18 -19 -19 -20 -1 -20 -2 3 -9 23 -7 23
-8 -9 -9 -37 -1 -36 -13 2 -16 32 -2 36 -35 3 -35 -18 0 -24 4 -20 15 4 8 1
15 -5 15 -6 0 -11 -12 -11 -26 0 -20 4 -25 16 -20 8 3 12 2 9 -4 -3 -6 0 -10
8 -10 8 0 17 -9 20 -20 6 -23 -8 -27 -20 -5 -6 10 -13 11 -23 5 -13 -8 -12
-10 3 -10 9 0 17 -5 17 -11 0 -5 -4 -7 -10 -4 -5 3 -10 1 -10 -4 0 -6 -8 -12
-17 -12 -10 -1 0 -5 22 -9 l40 -7 -37 -2 c-21 0 -38 -5 -38 -11 0 -5 -12 -11
-27 -12 -16 -1 -3 -4 27 -7 44 -5 55 -9 54 -23 -1 -11 5 -18 17 -18 12 0 16 5
13 15 -7 16 -5 16 111 20 108 4 116 5 110 15 -3 6 0 10 7 10 9 0 9 3 -2 10
-12 8 -9 10 13 10 16 0 26 4 22 10 -3 5 -12 7 -20 3 -8 -3 -15 0 -15 6 0 6 22
12 53 13 l52 1 -45 7 c-25 4 -36 8 -25 9 11 2 15 5 8 8 -9 3 -10 10 -3 22 11
21 4 31 -22 31 -10 0 -17 3 -17 8 1 4 1 9 -1 12 -1 3 -3 17 -5 33 -3 23 0 27
22 27 15 0 23 3 20 7 -9 9 12 33 29 33 8 0 14 -9 14 -19 0 -28 21 -37 35 -17
15 20 115 35 115 17 0 -8 5 -9 19 -1 32 16 46 12 48 -16 0 -15 7 -30 15 -35 9
-6 7 -9 -9 -9 -13 0 -23 -4 -23 -10 0 -5 7 -7 15 -4 12 5 15 0 14 -22 -1 -16
1 -36 5 -45 4 -10 1 -23 -9 -33 -12 -12 -13 -16 -3 -16 10 0 9 -3 -2 -10 -13
-8 -13 -10 0 -10 10 0 7 -5 -8 -16 -18 -13 -20 -19 -11 -36 6 -11 14 -16 18
-11 17 27 54 34 149 29 95 -6 96 -6 57 9 -27 10 -57 13 -92 9 -44 -5 -54 -3
-59 11 -4 9 -1 20 6 25 10 6 9 9 -1 13 -8 3 0 6 16 7 17 1 24 4 17 7 -6 2 -10
9 -6 14 3 5 -4 9 -15 9 -17 0 -18 4 -11 29 4 16 5 33 2 37 -4 4 4 4 16 1 13
-3 22 -3 19 -1 -3 3 5 16 17 29 16 17 29 22 45 18 17 -4 19 -8 9 -14 -9 -6 -3
-9 17 -10 l30 -1 -29 -8 c-16 -5 -34 -7 -40 -4 -6 3 -2 -2 9 -11 19 -15 38
-15 79 1 9 3 16 1 16 -6 0 -6 -4 -8 -10 -5 -5 3 -10 1 -10 -5 0 -18 52 -33 72
-21 26 16 55 13 62 -5 3 -9 12 -14 20 -11 9 4 13 0 12 -11 -2 -9 -14 -20 -27
-23 -13 -4 -19 -8 -14 -9 6 -1 -1 -6 -15 -10 -23 -7 -23 -8 -3 -9 12 -1 25 4
28 9 8 13 35 13 35 -1 0 -5 -4 -7 -10 -4 -5 3 -10 1 -10 -4 0 -6 -6 -11 -13
-11 -7 0 -19 -9 -27 -20 -8 -11 -21 -20 -30 -20 -8 0 -2 -7 14 -15 20 -11 33
-12 40 -5 6 6 67 10 148 10 145 0 144 0 200 52 10 10 26 18 36 18 14 0 15 2 2
10 -12 8 -12 10 5 11 11 0 14 3 8 6 -7 2 -13 11 -13 19 0 14 11 18 43 15 12
-2 17 5 17 23 0 19 -5 26 -20 26 -22 0 -27 -15 -7 -23 9 -4 9 -6 0 -6 -19 -1
-26 18 -13 34 9 11 9 15 1 15 -15 0 -14 33 1 48 17 17 77 15 84 -3 7 -18 25
-20 22 -2 -2 7 11 13 36 15 32 3 36 1 25 -10 -7 -8 -22 -14 -33 -14 -18 1 -21
-5 -22 -39 -3 -70 -4 -74 -26 -78 l-23 -4 23 -2 c13 0 20 -5 17 -11 -3 -5 -2
-10 3 -10 14 0 1 -43 -16 -56 -15 -11 -25 -54 -12 -54 41 0 99 73 85 107 -3 9
0 20 7 25 10 6 10 8 -2 8 -13 0 -13 1 0 10 12 7 12 12 2 22 -19 19 -15 58 6
58 9 0 22 10 27 22 13 29 35 35 35 9 0 -16 6 -21 28 -21 l27 0 -25 -20 c-20
-16 -22 -20 -7 -20 9 0 18 -4 18 -10 6 -49 3 -55 -26 -61 -17 -4 -24 -7 -17
-8 7 0 10 -5 7 -11 -3 -6 4 -10 18 -10 20 0 23 -4 19 -25 -3 -18 -11 -25 -28
-25 -13 0 -24 -4 -24 -10 0 -5 6 -10 14 -10 8 0 17 -7 20 -16 5 -14 8 -14 27
0 25 17 139 11 151 -8 5 -8 13 -8 28 1 11 7 32 14 47 14 17 1 21 3 11 6 -20 5
-23 18 -8 28 6 4 8 10 5 15 -3 4 4 10 15 13 21 5 28 27 9 27 -5 0 -7 -5 -3
-11 4 -7 -1 -9 -12 -7 -13 2 -18 10 -15 23 2 11 4 27 5 35 0 8 10 19 21 23 19
9 19 9 -5 19 l-25 11 25 7 25 8 -25 2 c-23 1 -23 2 -5 10 29 13 94 13 75 0
-12 -8 -12 -10 5 -11 18 0 18 -1 2 -7 -16 -7 -16 -9 4 -26 18 -15 21 -16 16
-2 -5 12 0 16 19 16 14 0 22 4 19 10 -3 6 2 10 12 11 11 0 13 3 5 6 -10 4 -10
8 -1 19 6 8 8 14 3 14 -5 0 4 7 20 15 37 19 62 19 70 -1 4 -11 -1 -18 -14 -21
-25 -7 -27 -33 -2 -33 9 -1 -8 -9 -38 -20 -30 -11 -63 -24 -72 -30 -10 -5 -32
-10 -50 -10 -19 0 -28 -4 -21 -8 16 -10 35 -62 23 -62 -14 0 -12 -27 3 -33 6
-3 2 -6 -10 -6 -29 -1 -31 -31 -2 -31 11 0 29 -5 40 -11 15 -7 24 -7 34 1 8 7
18 9 23 6 9 -5 59 8 93 24 8 4 29 6 45 4 24 -4 26 -3 9 5 -19 9 -18 10 4 10
24 1 24 1 5 16 -18 13 -17 14 18 15 37 0 37 -1 27 -27 -6 -15 -16 -31 -22 -35
-8 -5 -4 -8 10 -8 13 0 29 11 39 25 9 14 23 25 30 25 18 0 17 -10 -1 -34 -8
-11 -15 -27 -15 -35 0 -10 3 -12 8 -6 4 6 19 18 34 27 19 13 26 24 24 43 -3
19 1 25 18 26 21 0 21 1 1 9 -18 8 -18 9 5 10 l25 2 -25 8 -25 8 25 2 c24 2
23 3 -5 10 -24 6 -26 8 -7 9 26 1 30 21 5 21 -15 0 -13 4 7 20 l25 20 -24 0
c-13 0 -30 8 -38 18 -10 12 -16 14 -19 5 -3 -7 -24 -14 -47 -15 l-42 -1 38 -4
c36 -4 50 -24 27 -38 -14 -9 -12 -25 3 -25 8 0 14 -7 14 -15 0 -10 -11 -15
-31 -16 l-31 -1 30 -8 c27 -7 25 -8 -17 -9 -45 -1 -48 1 -48 24 0 17 6 25 18
26 11 0 7 4 -11 11 -15 5 -25 14 -21 19 3 5 -2 9 -10 9 -9 0 -16 9 -16 20 0
11 0 23 0 28 -1 11 73 19 93 9 13 -6 24 -4 35 6 23 21 89 32 105 19 8 -7 18
-7 27 -2 8 6 23 10 34 10 13 0 17 -5 13 -20 -3 -11 -1 -20 4 -20 5 0 9 -7 9
-15 0 -8 -4 -15 -10 -15 -5 0 -10 -5 -10 -11 0 -5 4 -8 9 -5 12 8 19 -47 9
-73 -5 -14 -3 -21 5 -21 8 0 6 -4 -3 -10 -13 -9 -13 -10 0 -10 13 0 13 -1 0
-10 -8 -5 -10 -10 -5 -10 6 0 2 -5 -7 -11 -20 -11 -24 -44 -8 -54 6 -3 10 -2
10 4 0 6 11 13 25 17 22 6 31 25 26 57 0 4 7 7 17 8 14 0 14 2 -3 9 -17 7 -14
9 15 10 19 1 29 4 22 7 -6 2 -10 9 -6 14 3 5 -6 9 -20 9 -22 0 -24 3 -16 28 4
16 4 35 1 43 -4 8 -7 20 -5 27 1 6 2 21 3 33 0 12 6 19 14 16 6 -2 11 -11 11
-19 -2 -18 29 -13 47 8 13 16 64 20 54 4 -3 -5 -1 -10 4 -10 16 0 9 -24 -9
-32 -11 -5 -10 -7 5 -7 17 -1 17 -3 5 -11 -8 -5 -23 -7 -32 -4 -10 3 -18 1
-18 -5 0 -6 3 -10 8 -9 4 1 19 -2 35 -6 31 -9 35 -30 10 -45 -10 -6 -13 -11
-7 -11 7 0 14 -9 17 -20 4 -17 0 -20 -31 -21 -36 -2 -36 -2 -7 -8 17 -3 31
-12 32 -18 3 -14 3 -14 -79 -16 -67 -2 -67 -12 -1 -22 27 -4 53 -11 59 -16 13
-10 79 13 67 24 -3 4 -1 7 6 7 7 0 9 5 6 10 -3 6 4 11 17 11 19 1 18 3 -7 9
-28 7 -29 8 -5 9 25 2 25 2 3 11 -27 11 -28 14 -7 34 8 9 11 16 5 16 -6 0 -11
5 -11 10 0 6 6 10 14 10 8 0 17 7 20 16 4 9 2 13 -5 8 -8 -4 -9 1 -4 17 4 13
12 26 16 27 5 2 7 8 3 13 -3 5 7 9 23 9 22 0 25 -2 13 -10 -12 -8 -8 -10 15
-11 30 -2 30 -2 -5 -9 -31 -7 -32 -7 -7 -9 15 0 27 -5 27 -11 0 -5 -6 -7 -13
-4 -8 3 -14 -2 -14 -11 0 -8 6 -15 14 -15 21 0 17 -77 -4 -83 -11 -3 -6 -5 12
-7 17 -1 25 -4 18 -6 -7 -3 -1 -15 15 -31 23 -23 36 -27 97 -30 102 -4 153 18
146 63 -1 7 4 12 11 11 39 -1 44 3 40 33 -4 26 -1 30 19 30 22 1 22 2 -6 15
-16 7 -25 14 -20 15 6 1 -1 5 -15 9 -17 5 -25 15 -27 33 -2 25 0 26 68 30 39
3 76 11 82 17 6 6 33 11 59 11 26 0 48 5 48 10 0 6 -8 10 -17 10 -14 0 -13 3
5 16 17 11 34 14 59 9 37 -7 34 -25 -5 -28 -11 0 -18 -5 -16 -9 3 -4 -1 -17
-9 -29 -13 -18 -13 -24 -1 -47 8 -15 11 -35 8 -45 -3 -10 -2 -17 3 -16 4 1 17
1 28 0 15 -1 17 -3 6 -10 -10 -7 -11 -9 0 -13 7 -2 12 -19 11 -44 -1 -29 -8
-44 -28 -60 -15 -12 -21 -23 -15 -25 23 -8 -8 -110 -45 -147 -19 -19 -34 -38
-34 -43 0 -5 -22 -9 -49 -9 -27 0 -63 -3 -80 -6 -25 -5 -31 -3 -31 10 0 13 8
16 37 14 27 -2 38 1 40 12 2 10 -4 16 -17 17 -11 1 -18 -2 -15 -8 4 -5 -4 -5
-19 1 -17 6 -26 6 -26 0 0 -6 -15 -10 -32 -10 -23 0 -29 -3 -19 -9 29 -18 -76
-23 -147 -6 -26 6 -30 10 -21 21 14 17 39 18 39 2 0 -9 17 -13 49 -13 46 0 48
1 32 16 -11 10 -28 15 -43 12 -14 -3 -29 0 -32 6 -4 6 -25 8 -54 5 -34 -4 -43
-3 -32 5 23 16 8 19 -25 5 -24 -10 -26 -13 -10 -14 l20 -1 -20 -9 c-16 -7 -13
-9 18 -9 20 -1 37 -6 37 -11 0 -6 -21 -8 -52 -5 -43 4 -48 3 -29 -5 43 -18 0
-40 -51 -26 -18 5 -34 3 -48 -7 -19 -13 -26 -13 -56 -1 -18 8 -44 14 -56 14
-18 0 -20 2 -8 10 10 6 1 9 -30 8 -25 -1 -58 0 -75 2 l-30 2 30 9 c29 7 23 7
-95 -1 -26 -2 33 -23 70 -25 99 -6 114 -8 95 -12 -11 -3 -24 -9 -29 -14 -13
-12 -83 -11 -91 1 -3 6 -17 10 -30 10 -13 0 -29 8 -34 18 -6 9 -11 13 -11 7 0
-5 -4 -3 -10 5 -5 8 -12 11 -16 7 -4 -3 -2 -13 4 -20 15 -18 3 -30 -15 -15 -9
7 -38 9 -83 5 -58 -5 -70 -3 -70 9 0 11 10 14 37 12 27 -2 38 1 40 12 2 10 -4
16 -17 17 -11 1 -18 -2 -15 -8 4 -5 -4 -5 -19 1 -17 6 -26 6 -26 0 0 -15 -87
-12 -103 4 -7 8 -24 12 -39 9 -14 -3 -29 0 -32 6 -4 6 -25 8 -54 5 -34 -4 -43
-3 -32 5 23 16 8 19 -25 5 -24 -10 -26 -13 -10 -14 l20 -1 -20 -9 c-16 -7 -13
-9 18 -9 26 -1 37 -5 37 -16 0 -8 -9 -15 -21 -15 -11 0 -18 4 -15 8 2 4 -12 9
-32 10 l-37 1 39 -15 c22 -8 41 -16 43 -17 3 -4 -59 -9 -87 -8 -8 1 -42 1 -75
2 -48 0 -55 2 -35 9 20 8 17 8 -13 4 -25 -3 -37 -2 -33 5 7 11 0 12 -99 13
-55 0 -64 2 -40 9 21 5 10 6 -34 3 -73 -5 -83 -9 -46 -18 14 -4 23 -11 20 -16
-10 -16 -43 -11 -54 8 -6 9 -11 13 -11 7 0 -5 -4 -3 -10 5 -5 8 -12 11 -16 7
-4 -3 -1 -13 5 -21 8 -9 8 -16 2 -20 -5 -4 -12 -2 -16 4 -8 13 -96 13 -129 0
-23 -8 -26 -7 -26 11 0 17 6 19 37 17 27 -2 38 1 40 12 2 10 -4 16 -17 17 -11
1 -18 -2 -15 -8 4 -5 -4 -5 -19 1 -17 6 -26 6 -26 0 0 -6 -15 -10 -32 -11
l-33 -1 30 -14 c29 -14 27 -14 -42 -11 -42 1 -67 -1 -60 -6 7 -5 2 -7 -13 -3
-14 3 -31 1 -39 -3 -22 -14 -44 -2 -30 15 9 11 8 14 -1 14 -10 0 -10 3 0 15
15 18 40 20 40 3 0 -9 17 -13 49 -13 46 0 48 1 32 16 -11 10 -28 15 -43 12
-14 -3 -29 0 -32 6 -4 6 -25 8 -54 5 -34 -4 -43 -3 -32 5 23 16 8 19 -25 5
-24 -10 -26 -13 -10 -14 l20 -1 -20 -9 c-16 -7 -13 -9 18 -9 26 -1 37 -5 37
-16 0 -8 -9 -15 -21 -15 -11 0 -18 4 -15 8 2 4 -12 9 -32 10 l-37 1 39 -15
c22 -8 41 -16 43 -17 3 -4 -60 -9 -84 -8 -7 1 -21 0 -30 -1 -10 0 -64 0 -120
0 -63 1 -103 -2 -103 -8 0 -6 -10 -10 -22 -10 -19 0 -20 -2 -8 -10 13 -8 12
-10 -2 -10 -10 0 -18 5 -18 10 0 6 -27 10 -60 10 -33 0 -60 4 -60 10 0 6 4 10
10 10 5 0 7 7 4 15 -4 8 -10 13 -14 10 -5 -3 -10 1 -13 7 -2 7 -8 10 -12 6 -4
-4 -3 -14 3 -21 15 -18 3 -30 -15 -16 -8 8 -39 10 -83 7 -56 -4 -70 -2 -70 9
0 10 10 13 37 11 27 -2 38 1 40 12 2 10 -4 16 -17 17 -11 1 -18 -2 -15 -8 4
-5 -4 -5 -19 1 -17 6 -26 6 -26 0 0 -6 -15 -10 -32 -11 l-33 -1 30 -14 c28
-13 24 -14 -55 -10 -47 2 -94 7 -105 9 -11 3 -24 6 -29 6 -14 1 15 31 30 31 8
0 14 -6 14 -12 0 -9 17 -13 49 -13 46 0 48 1 32 16 -11 10 -28 15 -43 12 -14
-3 -29 0 -32 6 -4 6 -25 8 -54 5 -34 -4 -43 -3 -32 5 23 16 8 19 -25 5 -24
-10 -26 -13 -10 -14 l20 -1 -20 -9 c-16 -7 -13 -9 18 -9 26 -1 37 -5 37 -16 0
-8 -8 -15 -18 -15 -10 0 -22 -4 -28 -10 -8 -8 -28 -11 -84 -10 -8 0 -32 -3
-52 -6 -25 -4 -38 -2 -38 5 0 6 6 11 13 11 6 0 -3 10 -21 22 -29 18 -39 20
-77 11 -26 -6 -50 -6 -60 -1 -9 5 -39 7 -68 4 -29 -3 -59 -6 -67 -6 -9 -1 -4
-6 10 -12 l25 -11 -24 -5 c-13 -2 -28 2 -32 10 -5 7 -9 9 -9 3 0 -5 -4 -3 -10
5 -5 8 -12 11 -16 7 -4 -3 -2 -13 4 -20 15 -18 3 -30 -15 -15 -9 7 -38 9 -83
5 -58 -5 -70 -3 -70 9 0 11 10 14 37 12 27 -2 38 1 40 12 2 10 -4 16 -17 17
-11 1 -18 -2 -15 -8 4 -5 -4 -5 -19 1 -17 6 -26 6 -26 0 0 -6 -15 -10 -32 -11
l-33 -1 30 -14 c29 -14 27 -14 -42 -11 -40 1 -67 0 -62 -4 6 -3 -12 -6 -40 -6
-40 1 -48 3 -39 14 8 10 7 13 -2 13 -10 0 -10 3 0 15 15 18 40 20 40 3 0 -9
17 -13 49 -13 46 0 48 1 32 16 -11 10 -28 15 -43 12 -14 -3 -29 0 -32 6 -4 6
-25 8 -54 5 -34 -4 -43 -3 -32 5 23 16 8 19 -25 5 -24 -10 -26 -13 -10 -14
l20 -1 -20 -9 c-16 -7 -13 -9 18 -9 26 -1 37 -5 37 -16 0 -8 -9 -15 -21 -15
-11 0 -18 4 -15 8 2 4 -12 9 -32 10 l-37 1 39 -15 c52 -19 53 -21 11 -22 -20
-1 -39 -4 -43 -6 -5 -3 -14 -1 -21 3 -7 5 -29 2 -49 -4 -25 -9 -43 -10 -55 -3
-10 5 -36 7 -58 3 -42 -7 -53 5 -21 25 14 10 13 10 -9 6 -19 -4 -29 -1 -33 9
-4 11 -20 15 -56 15 -29 0 -49 4 -45 9 3 5 -4 12 -15 16 -11 3 -20 14 -20 23
0 17 -38 48 -47 39 -5 -6 63 -98 81 -109 6 -4 29 -8 52 -8 33 0 43 -5 54 -25
12 -22 20 -25 64 -25 28 -1 62 -7 76 -15 33 -19 84 -19 121 1 20 10 51 14 92
13 34 -2 111 -2 170 0 103 2 110 1 138 -24 19 -15 43 -25 62 -25 38 0 50 7 66
37 6 13 16 23 22 23 5 0 26 7 47 16 22 10 69 18 115 19 71 2 79 0 95 -21 31
-43 116 -48 211 -13 28 10 58 10 150 0 64 -6 137 -9 163 -5 41 6 55 2 123 -32
42 -21 79 -42 81 -46 3 -4 17 -8 31 -8 18 0 37 13 61 41 l35 41 76 -7 c41 -4
86 -11 98 -16 14 -5 70 -3 145 7 99 12 131 13 166 3 77 -21 351 5 444 42 21 8
38 7 75 -4 26 -9 87 -21 134 -28 92 -13 175 -4 269 28 43 15 48 14 85 -5 22
-11 49 -29 59 -41 24 -26 56 -26 142 0 60 19 74 20 119 9 43 -10 58 -10 103 5
47 16 60 16 107 5 43 -10 57 -10 69 -1 11 9 20 10 35 2 33 -18 75 -13 89 10
12 20 19 21 65 13 29 -4 84 -8 123 -8 54 -1 77 -5 91 -19 11 -9 32 -17 48 -17
45 0 145 41 157 64 6 12 19 29 28 38 10 9 23 41 30 70 6 29 21 75 32 102 26
64 20 123 -16 166 -37 44 -34 68 10 86 36 15 36 16 32 62 -6 63 -26 102 -63
122 -27 15 -30 22 -33 73 -3 49 -7 59 -38 86 -19 17 -46 31 -59 31 -14 0 -42
15 -64 35 -37 34 -42 35 -107 34 -38 -1 -85 1 -104 5 -26 4 -30 4 -15 -3 19
-9 19 -10 -3 -10 -14 -1 -20 -5 -17 -12 4 -6 -2 -13 -14 -16 -11 -3 -19 -9
-16 -13 3 -5 -5 -5 -17 -2 -18 5 -19 7 -6 10 9 2 18 9 21 16 3 8 -4 11 -23 8
-19 -3 -27 -9 -24 -17 4 -9 -1 -12 -14 -8 -11 2 -23 0 -26 -6 -4 -6 -26 -11
-49 -11 -31 0 -38 3 -27 10 12 8 11 10 -7 10 -13 0 -23 -4 -23 -10 0 -5 -8
-10 -17 -10 -13 0 -14 3 -5 12 17 17 15 28 -4 28 -9 0 -27 11 -40 25 -28 31
-50 34 -34 5 10 -18 8 -19 -22 -15 -30 5 -29 4 7 -8 27 -9 35 -15 25 -19 -11
-5 -10 -7 5 -8 14 -2 11 -5 -10 -10 l-30 -8 37 -1 c20 0 39 -5 43 -11 3 -5 11
-7 18 -5 7 2 28 0 47 -5 30 -7 27 -8 -21 -5 -30 2 -63 7 -72 10 -8 4 -24 2
-34 -5 -17 -10 -17 -11 2 -6 11 3 27 1 35 -4 12 -8 11 -10 -7 -10 -13 0 -23
-4 -23 -10 0 -5 9 -10 20 -10 11 0 20 -4 20 -10 0 -9 -18 -14 -49 -13 -9 1
-10 -2 -3 -9 8 -8 19 -8 39 0 34 14 99 19 109 9 4 -4 -15 -8 -42 -8 l-49 -2
40 -6 40 -7 -33 -5 c-50 -9 -152 11 -145 27 4 11 -10 14 -68 12 l-74 -1 55 -6
c33 -4 54 -11 53 -17 -1 -7 13 -15 32 -18 19 -4 35 -11 35 -16 0 -11 -33 -13
-44 -3 -15 15 -34 10 -40 -10 -4 -17 -8 -19 -18 -9 -6 6 -20 12 -31 12 -10 0
-15 5 -12 10 4 6 3 9 -2 8 -4 -1 -19 2 -33 7 -24 9 -23 10 15 16 34 5 29 6
-30 8 -38 1 -83 8 -100 16 -30 14 -30 14 15 9 25 -3 56 -7 68 -10 14 -3 21 -1
18 5 -4 6 13 11 41 14 l48 3 -48 2 c-27 1 -46 6 -43 11 3 5 45 7 93 6 93 -4
91 -3 -77 20 -30 5 -57 11 -60 15 -3 4 -14 4 -25 -1 -19 -7 -19 -8 1 -8 12 -1
27 -8 34 -16 10 -12 7 -14 -17 -13 -15 1 -37 -2 -48 -6 -11 -4 -16 -4 -10 1
21 17 13 33 -32 68 -36 28 -55 35 -89 35 -24 0 -44 -4 -44 -10 0 -5 -6 -7 -14
-4 -8 3 -17 0 -22 -7 -5 -9 0 -10 22 -6 48 11 70 14 57 10 -18 -6 -16 -33 1
-33 8 0 17 4 21 9 6 11 65 -6 65 -19 0 -11 -124 -19 -128 -8 -2 4 -11 9 -20 9
-9 1 -3 5 13 9 l30 8 -32 1 c-17 0 -33 -4 -35 -10 -2 -7 -14 -8 -38 -1 -32 9
-33 10 -8 11 15 1 29 4 31 9 3 4 -16 6 -41 5 -109 -6 -129 -5 -167 5 -105 28
-147 34 -158 23 -6 -6 -20 -11 -32 -12 -14 0 -9 -5 15 -13 l35 -13 -45 -11
-45 -10 37 -1 c20 -1 39 -5 43 -11 3 -5 11 -7 18 -5 7 2 28 0 47 -5 30 -7 27
-8 -21 -5 -30 2 -63 7 -72 10 -8 4 -24 2 -34 -5 -17 -10 -17 -11 2 -6 11 3 27
1 35 -4 12 -8 11 -10 -7 -10 -13 0 -23 -4 -23 -10 0 -5 9 -10 20 -10 11 0 20
-4 20 -10 0 -9 -18 -14 -49 -13 -9 1 -10 -2 -3 -9 8 -8 19 -8 39 0 34 14 99
19 109 9 4 -4 -15 -8 -42 -8 l-49 -2 40 -6 40 -7 -33 -5 c-50 -9 -152 11 -145
27 4 11 -10 14 -68 12 l-74 -1 55 -6 c33 -4 54 -11 53 -17 -1 -7 13 -15 32
-18 19 -4 35 -11 35 -16 0 -11 -33 -13 -44 -3 -15 15 -34 10 -40 -10 -4 -17
-8 -19 -18 -9 -6 6 -20 12 -31 12 -10 0 -15 5 -12 10 4 6 3 9 -2 8 -4 -1 -19
2 -33 7 -24 9 -23 10 15 16 34 5 29 6 -30 8 -38 1 -83 8 -100 16 -30 14 -30
14 15 9 25 -3 56 -7 68 -10 14 -3 21 -1 18 5 -4 6 13 11 41 14 l48 3 -48 2
c-27 1 -46 6 -43 11 3 5 45 7 93 5 l88 -3 -65 9 c-36 5 -81 14 -100 19 -52 13
-2 13 57 0 33 -8 59 -8 83 -1 30 9 31 10 10 11 -20 1 -22 3 -10 11 13 9 13 10
0 11 -10 0 -8 3 5 9 19 8 19 9 -2 9 -12 1 -25 6 -28 11 -3 6 -18 10 -33 10
-15 0 -40 9 -57 20 -34 22 -45 25 -45 10z m-20 -31 c-11 -8 -7 -9 17 -5 18 3
35 1 38 -4 3 -6 -3 -10 -15 -10 -13 0 -18 -4 -15 -11 5 -7 -3 -9 -24 -6 -17 3
-31 1 -31 -4 0 -5 -15 -9 -33 -9 -18 0 -37 -4 -42 -9 -13 -11 -145 -21 -145
-11 0 5 -8 11 -17 13 -11 3 -7 5 10 6 16 0 26 5 22 11 -3 6 -2 10 4 10 5 0 11
-5 13 -12 3 -7 11 -9 24 -4 10 5 43 8 72 6 46 -1 56 2 73 24 11 14 30 26 42
26 18 0 20 -2 7 -11z m-2355 -9 c8 -13 -15 -13 -35 0 -12 8 -11 10 7 10 12 0
25 -4 28 -10z m905 -15 c5 3 12 0 16 -6 5 -9 0 -10 -17 -6 -13 4 -30 7 -38 7
-11 0 -9 4 5 14 16 13 19 13 22 0 2 -8 7 -12 12 -9z m1755 15 c3 -5 1 -10 -4
-10 -6 0 -11 5 -11 10 0 6 2 10 4 10 3 0 8 -4 11 -10z m-1960 -14 l40 -13 -45
-10 -45 -11 37 -1 c20 -1 39 -5 43 -11 3 -5 11 -7 18 -5 7 2 28 0 47 -5 30 -7
27 -8 -21 -5 -30 2 -63 7 -72 10 -8 4 -24 2 -34 -5 -17 -10 -17 -11 2 -6 11 3
27 1 35 -4 12 -8 11 -10 -7 -10 -13 0 -23 -4 -23 -10 0 -5 9 -10 20 -10 11 0
20 -4 20 -10 0 -9 -18 -14 -49 -13 -9 1 -10 -2 -3 -9 8 -8 19 -8 39 0 34 14
99 19 109 9 4 -4 -15 -8 -42 -8 l-49 -2 40 -6 40 -7 -33 -5 c-50 -9 -152 11
-145 27 4 11 -10 14 -68 12 l-74 -1 55 -6 c33 -4 54 -11 53 -17 -1 -7 13 -15
32 -18 19 -4 35 -11 35 -16 0 -11 -33 -13 -44 -3 -15 15 -34 10 -40 -10 -4
-17 -8 -19 -18 -9 -6 6 -20 12 -31 12 -10 0 -16 4 -13 9 3 5 -9 12 -27 16
l-32 8 40 7 c35 6 31 7 -30 9 -38 1 -83 8 -100 16 -30 14 -30 14 15 9 25 -3
56 -7 68 -10 15 -3 21 -1 17 6 -4 6 12 11 42 12 l48 2 -48 3 c-83 7 -41 21 50
17 l88 -3 -65 9 c-36 5 -81 14 -100 19 -29 7 -31 9 -10 10 14 0 42 -4 63 -10
22 -6 57 -7 80 -3 38 7 40 8 17 15 -14 4 -18 8 -10 8 13 1 13 2 0 11 -12 8
-12 10 5 11 17 1 16 2 -5 9 -23 7 -22 8 10 8 19 0 53 -5 75 -12z m1795 -1
c-10 -12 -9 -15 6 -16 14 -1 13 -3 -6 -9 -36 -12 -69 -12 -51 -1 7 5 11 13 7
19 -4 6 5 12 21 15 16 2 30 5 32 6 2 0 -2 -6 -9 -14z m246 5 c21 0 33 -4 29
-10 -10 -15 -59 -12 -81 6 -17 14 -17 15 -1 10 10 -3 34 -6 53 -6z m1308 -11
c8 -12 21 -19 29 -16 14 5 45 -8 37 -16 -12 -10 -90 -16 -90 -7 0 5 -8 11 -17
11 -10 1 -4 5 12 9 28 7 27 8 -15 10 -32 2 -37 4 -17 7 15 2 27 9 27 14 0 16
18 10 34 -12z m-4144 7 c0 -2 -9 -6 -20 -9 -11 -3 -18 -1 -14 4 5 9 34 13 34
5z m55 -6 c3 -5 -1 -10 -10 -10 -9 0 -13 5 -10 10 3 6 8 10 10 10 2 0 7 -4 10
-10z m135 -10 c12 -8 9 -10 -12 -10 -16 0 -28 5 -28 10 0 13 20 13 40 0z
m2850 1 c0 -11 -25 -21 -53 -21 -19 1 -18 3 8 15 37 16 45 18 45 6z m-2070
-11 c0 -5 -19 -10 -42 -10 -32 0 -39 3 -28 10 20 13 70 13 70 0z m175 0 l-20
-9 20 0 c17 -1 17 -3 5 -11 -8 -5 -25 -10 -37 -10 -22 0 -22 1 -6 20 10 11 27
20 38 19 20 0 20 0 0 -9z m1750 0 c-3 -5 -25 -9 -48 -9 l-42 2 40 7 c22 4 44
8 48 9 5 0 5 -3 2 -9z m-2902 -7 c-13 -2 -33 -2 -45 0 -13 2 -3 4 22 4 25 0
35 -2 23 -4z m1104 1 c-3 -3 -12 -4 -19 -1 -8 3 -5 6 6 6 11 1 17 -2 13 -5z
m780 0 c-3 -3 -12 -4 -19 -1 -8 3 -5 6 6 6 11 1 17 -2 13 -5z m-1687 -14 c-8
-5 -26 -10 -40 -10 -20 0 -22 2 -10 10 8 5 26 10 40 10 20 0 22 -2 10 -10z
m325 -16 c29 -21 4 -17 -41 6 -35 18 -36 19 -9 14 17 -4 39 -13 50 -20z m960
0 c29 -21 4 -17 -41 6 -35 18 -36 19 -9 14 17 -4 39 -13 50 -20z m635 16 c-8
-5 -26 -10 -40 -10 -20 0 -22 2 -10 10 8 5 26 10 40 10 20 0 22 -2 10 -10z
m325 -16 c29 -21 4 -17 -41 6 -35 18 -36 19 -9 14 17 -4 39 -13 50 -20z m635
16 c-8 -5 -26 -10 -40 -10 -20 0 -22 2 -10 10 8 5 26 10 40 10 20 0 22 -2 10
-10z m960 0 c-8 -5 -26 -10 -40 -10 -20 0 -22 2 -10 10 8 5 26 10 40 10 20 0
22 -2 10 -10z m-3790 -19 c-21 -6 -16 -9 27 -14 29 -4 55 -13 59 -19 5 -8 0
-9 -17 -3 -13 4 -41 9 -61 12 -45 6 -54 34 -10 32 l27 -1 -25 -7z m960 0 c-21
-6 -16 -9 27 -14 29 -4 55 -13 59 -19 5 -8 0 -9 -17 -3 -13 4 -41 9 -61 12
-45 6 -54 34 -10 32 l27 -1 -25 -7z m960 0 c-21 -6 -16 -9 27 -14 29 -4 55
-13 59 -19 5 -8 0 -9 -17 -3 -13 4 -41 9 -61 12 -45 6 -54 34 -10 32 l27 -1
-25 -7z m960 0 c-21 -6 -16 -9 27 -14 29 -4 55 -13 59 -19 5 -8 0 -9 -17 -3
-13 4 -41 9 -61 12 -45 6 -54 34 -10 32 l27 -1 -25 -7z m960 0 c-21 -6 -16 -9
27 -14 29 -4 55 -13 59 -19 5 -8 0 -9 -17 -3 -13 4 -41 9 -61 12 -45 6 -54 34
-10 32 l27 -1 -25 -7z m204 -2 c-2 -4 2 -10 8 -12 8 -4 9 -6 2 -6 -6 -1 -17 5
-23 12 -8 10 -7 14 4 14 8 0 12 -4 9 -8z m-4111 -6 c-7 -2 -21 -2 -30 0 -10 3
-4 5 12 5 17 0 24 -2 18 -5z m960 0 c-7 -2 -21 -2 -30 0 -10 3 -4 5 12 5 17 0
24 -2 18 -5z m960 0 c-7 -2 -21 -2 -30 0 -10 3 -4 5 12 5 17 0 24 -2 18 -5z
m960 0 c-7 -2 -21 -2 -30 0 -10 3 -4 5 12 5 17 0 24 -2 18 -5z m960 0 c-7 -2
-21 -2 -30 0 -10 3 -4 5 12 5 17 0 24 -2 18 -5z m-3940 -10 c-7 -2 -19 -2 -25
0 -7 3 -2 5 12 5 14 0 19 -2 13 -5z m960 0 c-7 -2 -19 -2 -25 0 -7 3 -2 5 12
5 14 0 19 -2 13 -5z m1920 0 c-7 -2 -19 -2 -25 0 -7 3 -2 5 12 5 14 0 19 -2
13 -5z m960 0 c-7 -2 -19 -2 -25 0 -7 3 -2 5 12 5 14 0 19 -2 13 -5z m-3786
-9 c-3 -3 -12 -4 -19 -1 -8 3 -5 6 6 6 11 1 17 -2 13 -5z m386 -1 c-7 -2 -19
-2 -25 0 -7 3 -2 5 12 5 14 0 19 -2 13 -5z m574 1 c-3 -3 -12 -4 -19 -1 -8 3
-5 6 6 6 11 1 17 -2 13 -5z m386 -1 c-7 -2 -19 -2 -25 0 -7 3 -2 5 12 5 14 0
19 -2 13 -5z m574 1 c-3 -3 -12 -4 -19 -1 -8 3 -5 6 6 6 11 1 17 -2 13 -5z
m386 -1 c-7 -2 -19 -2 -25 0 -7 3 -2 5 12 5 14 0 19 -2 13 -5z m574 1 c-3 -3
-12 -4 -19 -1 -8 3 -5 6 6 6 11 1 17 -2 13 -5z m386 -1 c-7 -2 -19 -2 -25 0
-7 3 -2 5 12 5 14 0 19 -2 13 -5z m574 1 c-3 -3 -12 -4 -19 -1 -8 3 -5 6 6 6
11 1 17 -2 13 -5z m-3747 -14 c0 -5 -5 -10 -11 -10 -5 0 -7 5 -4 10 3 6 8 10
11 10 2 0 4 -4 4 -10z m960 0 c0 -5 -5 -10 -11 -10 -5 0 -7 5 -4 10 3 6 8 10
11 10 2 0 4 -4 4 -10z m960 0 c0 -5 -5 -10 -11 -10 -5 0 -7 5 -4 10 3 6 8 10
11 10 2 0 4 -4 4 -10z m960 0 c0 -5 -5 -10 -11 -10 -5 0 -7 5 -4 10 3 6 8 10
11 10 2 0 4 -4 4 -10z m960 0 c0 -5 -5 -10 -11 -10 -5 0 -7 5 -4 10 3 6 8 10
11 10 2 0 4 -4 4 -10z m295 -11 c15 -14 -26 -10 -60 6 l-30 14 40 -6 c22 -3
44 -9 50 -14z m-3926 -15 c2 -2 -7 -4 -22 -4 -14 0 -29 5 -32 10 -6 10 42 4
54 -6z m960 0 c2 -2 -7 -4 -22 -4 -14 0 -29 5 -32 10 -6 10 42 4 54 -6z m960
0 c2 -2 -7 -4 -22 -4 -14 0 -29 5 -32 10 -6 10 42 4 54 -6z m960 0 c2 -2 -7
-4 -22 -4 -14 0 -29 5 -32 10 -6 10 42 4 54 -6z m960 0 c2 -2 -7 -4 -22 -4
-14 0 -29 5 -32 10 -6 10 42 4 54 -6z m-3771 -5 c26 0 25 -1 -8 -14 -46 -18
-46 -18 -46 5 0 13 5 19 14 15 7 -3 26 -5 40 -6z m960 0 c26 0 25 -1 -8 -14
-46 -18 -46 -18 -46 5 0 13 5 19 14 15 7 -3 26 -5 40 -6z m960 0 c26 0 25 -1
-8 -14 -46 -18 -46 -18 -46 5 0 13 5 19 14 15 7 -3 26 -5 40 -6z m960 0 c26 0
25 -1 -8 -14 -46 -18 -46 -18 -46 5 0 13 5 19 14 15 7 -3 26 -5 40 -6z m955 1
c17 -1 19 -2 7 -9 -37 -21 -56 -21 -56 -1 0 13 5 19 14 15 7 -3 23 -5 35 -5z
m-4210 -10 c8 0 7 -3 -1 -9 -8 -5 9 -8 45 -6 32 1 52 0 46 -2 -7 -3 -13 -10
-13 -17 0 -8 16 -13 47 -13 34 0 41 2 25 8 -12 5 -22 11 -22 13 0 3 6 3 13 0
8 -3 39 -6 70 -7 31 -2 60 -7 64 -11 4 -5 -14 -6 -42 -2 -47 6 -55 -6 -10 -17
11 -3 -26 -5 -82 -6 -57 0 -103 -4 -103 -8 0 -5 -11 -13 -25 -20 -20 -9 -25
-8 -25 2 0 7 -10 11 -24 10 -28 -4 -58 14 -38 22 10 4 9 9 -5 20 -10 8 -13 12
-7 9 7 -3 17 1 24 9 7 8 20 15 29 15 14 0 14 2 1 11 -12 9 -12 10 3 5 10 -3
24 -6 30 -6z m960 0 c8 0 7 -3 -1 -9 -8 -5 9 -8 45 -6 32 1 52 0 46 -2 -7 -3
-13 -10 -13 -17 0 -8 16 -13 47 -13 34 0 41 2 25 8 -12 5 -22 11 -22 13 0 3 6
3 13 0 8 -3 39 -6 70 -7 31 -2 60 -7 64 -11 4 -5 -14 -6 -42 -2 -47 6 -55 -6
-10 -17 11 -3 -26 -5 -82 -6 -57 0 -103 -4 -103 -8 0 -5 -11 -13 -25 -20 -21
-9 -25 -9 -25 4 0 8 -4 12 -9 9 -14 -9 -41 4 -41 20 0 8 -4 14 -10 14 -5 0 -7
-8 -4 -17 5 -15 4 -15 -4 -3 -6 8 -9 17 -6 22 3 4 -10 12 -28 17 -18 5 -25 10
-15 10 10 1 27 -3 37 -9 13 -7 21 -6 30 5 7 8 20 15 29 15 14 0 14 2 1 11 -12
9 -12 10 3 5 10 -3 24 -6 30 -6z m968 -5 c24 -9 55 -13 69 -10 19 4 22 3 10
-5 -18 -12 -152 -11 -144 1 3 5 13 9 22 9 15 0 15 2 2 10 -22 14 -9 12 41 -5z
m952 5 c8 0 7 -3 -1 -9 -8 -5 9 -8 45 -6 32 1 52 0 46 -2 -7 -3 -13 -10 -13
-17 0 -8 16 -13 47 -13 34 0 41 2 25 8 -12 5 -22 11 -22 13 0 3 6 3 13 0 8 -3
39 -6 70 -7 31 -2 60 -7 64 -11 4 -5 -14 -6 -42 -2 -47 6 -55 -6 -10 -17 11
-3 -26 -5 -82 -6 -57 0 -103 -4 -103 -8 0 -5 -11 -13 -25 -20 -21 -9 -25 -9
-25 4 0 8 -4 12 -9 9 -14 -9 -41 4 -41 20 0 8 -4 14 -10 14 -5 0 -7 -8 -4 -17
5 -15 4 -15 -4 -3 -6 8 -9 17 -6 22 3 4 -10 12 -28 17 -18 5 -25 10 -15 10 10
1 27 -3 37 -9 13 -7 21 -6 30 5 7 8 20 15 29 15 14 0 14 2 1 11 -12 9 -12 10
3 5 10 -3 24 -6 30 -6z m960 0 c8 0 7 -3 -1 -9 -8 -5 9 -8 45 -6 32 1 52 0 46
-2 -7 -3 -13 -10 -13 -17 0 -8 16 -13 47 -13 34 0 41 2 25 8 -12 5 -22 11 -22
13 0 3 6 3 13 0 8 -3 39 -6 70 -7 31 -2 60 -7 64 -11 4 -5 -14 -6 -42 -2 -47
6 -55 -6 -10 -17 11 -3 -26 -5 -82 -6 -57 0 -103 -4 -103 -8 0 -5 -11 -13 -25
-20 -21 -9 -25 -9 -25 4 0 8 -4 12 -9 9 -14 -9 -41 4 -41 20 0 8 -4 14 -10 14
-5 0 -7 -8 -4 -17 5 -15 4 -15 -4 -3 -6 8 -9 17 -6 22 3 4 -10 12 -28 17 -18
5 -25 10 -15 10 10 1 27 -3 37 -9 13 -7 21 -6 30 5 7 8 20 15 29 15 14 0 14 2
1 11 -12 9 -12 10 3 5 10 -3 24 -6 30 -6z m-4056 -26 c-3 -3 -12 -4 -19 -1 -8
3 -5 6 6 6 11 1 17 -2 13 -5z m48 -4 c-3 -5 -13 -10 -21 -10 -8 0 -12 5 -9 10
3 6 13 10 21 10 8 0 12 -4 9 -10z m912 4 c-3 -3 -12 -4 -19 -1 -8 3 -5 6 6 6
11 1 17 -2 13 -5z m48 -4 c-3 -5 -13 -10 -21 -10 -8 0 -12 5 -9 10 3 6 13 10
21 10 8 0 12 -4 9 -10z m912 4 c-3 -3 -12 -4 -19 -1 -8 3 -5 6 6 6 11 1 17 -2
13 -5z m48 -4 c-3 -5 -13 -10 -21 -10 -8 0 -12 5 -9 10 3 6 13 10 21 10 8 0
12 -4 9 -10z m58 3 c-7 -2 -19 -2 -25 0 -7 3 -2 5 12 5 14 0 19 -2 13 -5z
m854 1 c-3 -3 -12 -4 -19 -1 -8 3 -5 6 6 6 11 1 17 -2 13 -5z m48 -4 c-3 -5
-13 -10 -21 -10 -8 0 -12 5 -9 10 3 6 13 10 21 10 8 0 12 -4 9 -10z m912 4
c-3 -3 -12 -4 -19 -1 -8 3 -5 6 6 6 11 1 17 -2 13 -5z m48 -4 c-3 -5 -13 -10
-21 -10 -8 0 -12 5 -9 10 3 6 13 10 21 10 8 0 12 -4 9 -10z m-3968 -6 c-3 -3
-12 -4 -19 -1 -8 3 -5 6 6 6 11 1 17 -2 13 -5z m960 0 c-3 -3 -12 -4 -19 -1
-8 3 -5 6 6 6 11 1 17 -2 13 -5z m960 0 c-3 -3 -12 -4 -19 -1 -8 3 -5 6 6 6
11 1 17 -2 13 -5z m570 -8 c10 -9 -49 -6 -72 5 -15 7 -9 8 23 5 23 -2 46 -6
49 -10z m390 8 c-3 -3 -12 -4 -19 -1 -8 3 -5 6 6 6 11 1 17 -2 13 -5z m960 0
c-3 -3 -12 -4 -19 -1 -8 3 -5 6 6 6 11 1 17 -2 13 -5z m-3792 -14 c8 -13 -5
-13 -25 0 -13 8 -13 10 2 10 9 0 20 -4 23 -10z m960 0 c8 -13 -5 -13 -25 0
-13 8 -13 10 2 10 9 0 20 -4 23 -10z m130 0 c-3 -5 -14 -10 -23 -10 -15 0 -15
2 -2 10 20 13 33 13 25 0z m830 0 c8 -13 -5 -13 -25 0 -13 8 -13 10 2 10 9 0
20 -4 23 -10z m960 0 c8 -13 -5 -13 -25 0 -13 8 -13 10 2 10 9 0 20 -4 23 -10z
m130 0 c-3 -5 -14 -10 -23 -10 -15 0 -15 2 -2 10 20 13 33 13 25 0z m830 0 c8
-13 -5 -13 -25 0 -13 8 -13 10 2 10 9 0 20 -4 23 -10z m130 0 c-3 -5 -14 -10
-23 -10 -15 0 -15 2 -2 10 20 13 33 13 25 0z m-3218 -6 c-3 -3 -12 -4 -19 -1
-8 3 -5 6 6 6 11 1 17 -2 13 -5z m-830 -10 c-3 -3 -12 -4 -19 -1 -8 3 -5 6 6
6 11 1 17 -2 13 -5z m63 -4 c12 -8 11 -10 -7 -10 -13 0 -23 5 -23 10 0 13 11
13 30 0z m897 4 c-3 -3 -12 -4 -19 -1 -8 3 -5 6 6 6 11 1 17 -2 13 -5z m63 -4
c12 -8 11 -10 -7 -10 -13 0 -23 5 -23 10 0 13 11 13 30 0z m660 -1 c0 -6 -9
-9 -20 -6 -11 3 -18 1 -15 -3 3 -5 1 -11 -4 -15 -6 -3 -15 4 -21 15 -10 18 -8
20 25 20 19 0 35 -5 35 -11z m237 5 c-3 -3 -12 -4 -19 -1 -8 3 -5 6 6 6 11 1
17 -2 13 -5z m63 -4 c12 -8 11 -10 -7 -10 -13 0 -23 5 -23 10 0 13 11 13 30 0z
m660 -1 c0 -6 -9 -9 -20 -6 -11 3 -18 1 -15 -3 3 -5 1 -11 -4 -15 -6 -3 -15 4
-21 15 -10 18 -8 20 25 20 19 0 35 -5 35 -11z m237 5 c-3 -3 -12 -4 -19 -1 -8
3 -5 6 6 6 11 1 17 -2 13 -5z m63 -4 c12 -8 11 -10 -7 -10 -13 0 -23 5 -23 10
0 13 11 13 30 0z m660 -1 c0 -6 -9 -9 -20 -6 -11 3 -18 1 -15 -3 3 -5 1 -11
-4 -15 -6 -3 -15 4 -21 15 -10 18 -8 20 25 20 19 0 35 -5 35 -11z m237 5 c-3
-3 -12 -4 -19 -1 -8 3 -5 6 6 6 11 1 17 -2 13 -5z m63 -4 c12 -8 11 -10 -7
-10 -13 0 -23 5 -23 10 0 13 11 13 30 0z m650 -1 c0 -6 -7 -8 -16 -5 -8 3 -12
2 -9 -3 3 -5 1 -12 -4 -16 -6 -3 -15 4 -21 15 -10 18 -8 20 20 20 16 0 30 -5
30 -11z m-3830 -3 c0 -3 -4 -8 -10 -11 -5 -3 -10 -1 -10 4 0 6 5 11 10 11 6 0
10 -2 10 -4z m410 -6 c13 -9 13 -10 0 -10 -8 0 -22 5 -30 10 -13 9 -13 10 0
10 8 0 22 -5 30 -10z m960 0 c13 -9 13 -10 0 -10 -8 0 -22 5 -30 10 -13 9 -13
10 0 10 8 0 22 -5 30 -10z m269 -1 c-6 -3 12 -4 40 -1 38 3 54 0 66 -12 16
-15 14 -16 -27 -11 -23 3 -37 2 -30 -1 6 -3 12 -12 12 -20 0 -13 -4 -13 -27
-1 -50 26 -73 30 -73 14 0 -9 6 -17 13 -20 6 -2 9 -8 5 -12 -4 -4 -14 -2 -23
5 -13 11 -15 8 -14 -16 0 -16 3 -23 6 -16 2 6 14 12 26 11 12 0 16 -3 10 -6
-20 -7 -15 -20 10 -28 20 -7 18 -8 -13 -14 -26 -4 -36 -12 -38 -28 -2 -13 -4
-23 -5 -23 -1 0 -20 7 -42 14 -33 12 -40 19 -41 41 -1 23 2 26 22 21 17 -5 24
-2 24 8 0 8 6 16 12 18 9 3 8 9 -5 22 -9 10 -17 22 -17 27 0 6 -4 7 -10 4 -5
-3 -10 1 -10 9 0 10 -6 13 -17 9 -11 -4 -14 -3 -9 5 4 8 35 11 86 10 44 -1 75
-5 69 -9z m691 1 c13 -9 13 -10 0 -10 -8 0 -22 5 -30 10 -13 9 -13 10 0 10 8
0 22 -5 30 -10z m960 0 c13 -9 13 -10 0 -10 -8 0 -22 5 -30 10 -13 9 -13 10 0
10 8 0 22 -5 30 -10z m-3365 -9 c-3 -6 -29 -8 -58 -6 -43 4 -47 3 -22 -5 23
-7 15 -8 -30 -4 -55 5 -58 4 -40 -9 32 -24 11 -30 -26 -8 -33 20 -32 24 16 34
40 9 166 7 160 -2z m960 0 c-6 -6 -33 -6 -65 -2 l-55 9 65 1 c39 1 60 -3 55
-8z m234 -5 l25 -9 -28 -14 c-15 -8 -26 -17 -23 -19 8 -8 77 7 77 17 0 5 15 9
33 9 24 0 28 3 17 10 -13 8 -12 10 3 10 9 0 17 -5 17 -11 0 -6 9 -8 21 -4 13
4 19 3 16 -2 -4 -6 4 -8 18 -5 14 2 25 8 25 13 0 5 4 9 9 9 6 0 9 -9 8 -19 -1
-15 -11 -21 -44 -26 -24 -3 -53 -3 -65 1 -20 6 -20 5 -7 -9 10 -9 38 -16 75
-18 32 -2 63 -5 67 -7 15 -7 -14 -31 -46 -38 -41 -8 -49 -13 -41 -25 4 -7 10
-6 18 0 7 6 39 13 72 17 32 4 65 11 72 17 8 7 12 5 12 -6 0 -10 -13 -18 -35
-23 -20 -3 -32 -11 -28 -17 6 -10 -23 -5 -61 9 -10 4 -16 1 -16 -9 0 -11 -10
-13 -45 -9 -25 2 -45 0 -45 -5 0 -5 -16 -15 -35 -22 -19 -7 -33 -16 -30 -20 4
-7 -36 -31 -50 -31 -3 0 -5 16 -5 35 0 39 -1 39 34 25 21 -7 26 -6 26 5 0 9
10 15 28 16 29 1 24 3 -20 13 -34 8 -36 23 -5 29 17 3 15 5 -9 6 -20 1 -31 6
-31 16 0 10 10 15 31 15 24 0 27 3 16 10 -12 8 -11 10 8 10 12 0 21 -5 20 -12
-2 -6 6 -13 17 -15 16 -3 17 -2 5 6 -8 6 -10 11 -5 11 6 0 3 5 -5 10 -21 13
-60 12 -60 -1 0 -8 -12 -10 -36 -6 -30 5 -39 2 -57 -19 -19 -22 -29 -25 -77
-22 l-55 3 34 18 c19 11 46 17 63 15 16 -3 31 -1 34 4 3 4 -1 8 -9 8 -8 0 -20
7 -27 15 -10 12 -9 15 8 15 11 0 22 -6 24 -12 3 -9 10 -8 22 5 10 9 16 22 14
29 -3 8 -8 7 -18 -3 -8 -9 -25 -13 -41 -11 -17 3 -35 -2 -44 -12 -12 -12 -21
-13 -36 -6 -22 12 -25 22 -6 19 17 -3 86 12 91 20 6 8 56 7 85 -3z m727 5 c-3
-5 -15 -7 -26 -4 -28 7 -25 13 6 13 14 0 23 -4 20 -9z m233 -5 l24 -14 -21 -6
c-12 -4 -22 -12 -22 -17 0 -13 63 -1 68 12 2 5 18 9 35 9 24 0 28 3 17 10 -13
8 -12 10 3 10 9 0 17 -5 17 -11 0 -6 9 -8 21 -4 13 4 19 3 16 -2 -4 -6 4 -8
18 -5 14 2 25 8 25 13 0 5 4 9 9 9 6 0 9 -9 8 -19 -1 -15 -11 -21 -44 -26 -24
-3 -53 -3 -65 1 -20 6 -20 5 -7 -9 10 -9 38 -16 75 -18 32 -2 63 -5 67 -7 13
-6 -14 -32 -35 -32 -10 0 -33 -7 -51 -16 -21 -12 -32 -13 -35 -5 -2 6 -13 11
-23 11 -13 0 -18 5 -14 13 4 6 0 4 -8 -5 -8 -10 -25 -18 -38 -17 l-24 1 25 8
c24 8 24 8 -6 9 -20 1 -31 6 -31 16 0 10 10 15 31 15 24 0 27 3 16 10 -12 8
-11 10 8 10 12 0 21 -5 20 -12 -2 -6 6 -13 17 -15 16 -3 17 -2 5 6 -8 6 -10
11 -5 11 6 0 3 5 -5 10 -20 13 -60 13 -60 0 0 -5 -12 -10 -26 -10 -14 0 -40
-10 -57 -23 -18 -13 -38 -23 -44 -21 -7 1 -34 2 -60 3 -46 2 -47 2 -23 15 18
10 30 11 44 4 14 -8 21 -7 28 6 5 9 16 16 25 16 15 0 14 2 -2 13 -14 11 -15
16 -5 22 8 5 15 4 18 -3 7 -21 45 7 39 29 -6 22 -1 23 32 5z m726 5 c-3 -6
-29 -8 -58 -6 -43 4 -47 3 -22 -5 23 -7 15 -8 -30 -4 -55 5 -58 4 -40 -9 32
-24 11 -30 -26 -8 -33 20 -32 24 16 34 40 9 166 7 160 -2z m234 -5 l25 -9 -28
-14 c-15 -8 -26 -17 -23 -19 8 -8 77 7 77 17 0 5 15 9 33 9 24 0 28 3 17 10
-13 8 -12 10 3 10 9 0 17 -5 17 -11 0 -6 9 -8 21 -4 13 4 19 3 16 -2 -4 -6 4
-8 18 -5 14 2 25 8 25 13 0 5 4 9 9 9 6 0 9 -9 8 -19 -1 -15 -11 -21 -44 -26
-24 -3 -53 -3 -65 1 -20 6 -21 5 -7 -9 10 -9 40 -17 77 -19 66 -4 80 -15 41
-35 -29 -15 -56 -16 -64 -3 -3 6 -11 10 -16 10 -6 0 -8 -4 -4 -9 3 -5 -8 -9
-24 -9 -19 1 -28 5 -25 12 3 6 0 4 -8 -5 -13 -16 -51 -39 -63 -39 -17 0 4 25
26 31 22 6 22 7 -7 8 -20 1 -31 6 -31 16 0 10 10 15 31 15 24 0 27 3 16 10
-12 8 -11 10 8 10 12 0 21 -5 20 -12 -2 -6 6 -13 17 -15 16 -3 17 -2 5 6 -8 6
-10 11 -5 11 6 0 3 5 -5 10 -21 13 -60 12 -60 -1 0 -8 -12 -10 -36 -6 -30 5
-39 2 -57 -19 -19 -22 -29 -25 -77 -22 l-55 3 34 18 c19 11 46 17 63 15 16 -3
31 -1 34 4 3 4 -1 8 -9 8 -8 0 -20 7 -27 15 -10 12 -9 15 8 15 11 0 22 -6 24
-12 3 -9 10 -8 22 5 10 9 16 22 14 29 -3 8 -8 7 -18 -3 -8 -9 -25 -13 -41 -11
-17 3 -35 -2 -44 -12 -12 -12 -21 -13 -36 -6 -22 12 -25 22 -6 19 17 -3 86 12
91 20 6 8 56 7 85 -3z m726 5 c-3 -6 -29 -8 -58 -6 -43 4 -47 3 -22 -5 23 -7
15 -8 -30 -4 -55 5 -58 4 -40 -9 32 -24 11 -30 -26 -8 -33 20 -32 24 16 34 40
9 166 7 160 -2z m-3055 -11 c-20 -13 -33 -13 -25 0 3 6 14 10 23 10 15 0 15
-2 2 -10z m727 -6 c-3 -3 -12 -4 -19 -1 -8 3 -5 6 6 6 11 1 17 -2 13 -5z
m2435 -14 c-18 -15 -28 -17 -43 -10 -21 12 -26 25 -6 17 6 -2 21 -1 32 4 34
13 41 9 17 -11z m-4183 -8 c16 -16 7 -29 -11 -15 -7 6 -26 15 -43 21 l-30 10
35 -1 c19 -1 41 -8 49 -15z m960 0 c16 -16 7 -29 -11 -15 -7 6 -26 15 -43 21
l-30 10 35 -1 c19 -1 41 -8 49 -15z m1281 1 c0 -11 -5 -11 -20 -3 -11 6 -20
13 -20 15 0 2 9 3 20 2 11 -1 20 -7 20 -14z m639 -1 c16 -16 7 -29 -11 -15 -7
6 -26 15 -43 21 l-30 10 35 -1 c19 -1 41 -8 49 -15z m960 0 c16 -16 7 -29 -11
-15 -7 6 -26 15 -43 21 l-30 10 35 -1 c19 -1 41 -8 49 -15z m385 -8 c5 -14 4
-15 -9 -4 -17 14 -19 20 -6 20 5 0 12 -7 15 -16z m-3082 -19 c6 -30 -1 -36
-55 -45 -38 -7 -38 -7 -32 19 4 14 7 26 8 26 1 0 11 5 22 12 33 19 52 15 57
-12z m-1268 6 c19 -7 19 -8 0 -16 -10 -4 -30 -9 -44 -10 -14 -2 -19 -1 -12 2
6 2 12 11 12 19 0 15 14 17 44 5z m309 -34 c-3 -4 -11 -3 -18 3 -11 9 -12 15
-2 25 10 11 13 10 18 -4 4 -9 4 -20 2 -24z m102 33 c3 -5 -1 -10 -9 -10 -9 0
-16 5 -16 10 0 6 4 10 9 10 6 0 13 -4 16 -10z m544 1 c15 -10 8 -15 -32 -25
-26 -6 -27 -6 -10 14 20 22 22 23 42 11z m426 -1 c18 -8 17 -9 -7 -9 -16 -1
-28 4 -28 9 0 12 8 12 35 0z m842 -22 c-3 -7 -5 -2 -5 12 0 14 2 19 5 13 2 -7
2 -19 0 -25z m118 22 c18 -8 17 -9 -7 -9 -16 -1 -28 4 -28 9 0 12 8 12 35 0z
m534 1 c15 -10 8 -15 -32 -25 -26 -6 -27 -6 -10 14 20 22 22 23 42 11z m314
-34 c-3 -4 -11 -3 -18 3 -11 9 -12 15 -2 25 10 11 13 10 18 -4 4 -9 4 -20 2
-24z m112 33 c18 -8 17 -9 -7 -9 -16 -1 -28 4 -28 9 0 12 8 12 35 0z m534 1
c15 -10 8 -15 -32 -25 -26 -6 -27 -6 -10 14 20 22 22 23 42 11z m314 -34 c-3
-4 -11 -3 -18 3 -11 9 -12 15 -2 25 10 11 13 10 18 -4 4 -9 4 -20 2 -24z m112
33 c18 -8 17 -9 -7 -9 -16 -1 -28 4 -28 9 0 12 8 12 35 0z m-4015 -9 c0 -5 3
-16 6 -25 4 -12 0 -16 -16 -16 -16 0 -20 4 -16 16 3 9 6 20 6 25 0 5 5 9 10 9
6 0 10 -4 10 -9z m1635 -10 c-3 -6 -11 -11 -16 -11 -5 0 -4 6 3 14 14 16 24
13 13 -3z m295 -23 c0 -4 -9 -8 -21 -8 -15 0 -19 4 -15 16 3 9 6 21 6 27 1 13
30 -22 30 -35z m950 33 c0 -5 3 -16 6 -25 4 -12 0 -16 -16 -16 -16 0 -20 4
-16 16 3 9 6 20 6 25 0 5 5 9 10 9 6 0 10 -4 10 -9z m960 0 c0 -5 3 -16 6 -25
4 -12 0 -16 -16 -16 -16 0 -20 4 -16 16 3 9 6 20 6 25 0 5 5 9 10 9 6 0 10 -4
10 -9z m-4180 -41 c0 -27 -7 -48 -20 -63 -19 -19 -19 -22 -4 -27 13 -5 8 -10
-20 -24 -21 -10 -40 -16 -42 -13 -3 2 2 20 10 38 8 19 22 55 32 82 21 59 44
63 44 7z m233 33 c-20 -7 -15 -20 10 -28 20 -7 19 -8 -11 -12 -18 -2 -36 -11
-39 -19 -3 -8 -9 -14 -15 -14 -5 0 -6 5 -3 10 3 6 -3 10 -15 10 -12 0 -18 -4
-15 -10 10 -16 -38 -12 -74 6 -46 23 -26 37 56 40 38 1 69 7 71 13 2 6 13 11
25 10 12 0 16 -3 10 -6z m960 0 c-20 -7 -15 -20 10 -28 21 -7 20 -8 -8 -12
-16 -3 -34 -8 -38 -13 -5 -4 -30 -1 -55 7 -26 8 -60 11 -77 8 -22 -4 -26 -2
-18 6 6 6 42 12 79 14 38 2 70 8 72 14 2 6 13 11 25 10 12 0 16 -3 10 -6z
m1920 0 c-19 -7 -16 -21 5 -25 9 -3 -10 -10 -43 -17 -33 -7 -65 -17 -72 -23
-8 -6 -19 -6 -32 1 -11 6 -37 12 -58 12 -21 1 -29 3 -18 6 11 3 26 10 32 15 7
6 43 12 80 13 37 2 69 8 71 14 2 6 13 11 25 10 12 0 16 -3 10 -6z m960 0 c-18
-7 -16 -23 1 -23 8 0 18 -5 22 -12 5 -8 -3 -10 -28 -5 -19 3 -56 1 -84 -5 -27
-5 -56 -10 -64 -10 -41 1 -90 -11 -84 -20 7 -11 -45 -3 -56 8 -9 10 26 24 61
24 19 0 40 5 46 11 6 6 42 12 79 14 38 2 70 8 72 14 2 6 13 11 25 10 12 0 16
-3 10 -6z m381 -8 c8 -21 -11 -27 -70 -23 l-49 3 30 17 c38 22 81 23 89 3z
m-3482 -47 c-17 -8 -26 -8 -34 0 -9 9 -4 12 23 11 32 0 33 -1 11 -11z m558 2
c0 -5 -7 -10 -15 -10 -8 0 -15 5 -15 10 0 6 7 10 15 10 8 0 15 -4 15 -10z
m1910 0 c0 -5 -4 -10 -10 -10 -5 0 -10 5 -10 10 0 6 5 10 10 10 6 0 10 -4 10
-10z m-854 -25 c-33 -18 -36 -18 -36 -6 0 9 21 18 50 20 8 0 2 -6 -14 -14z
m-2286 1 c0 -3 -4 -8 -10 -11 -5 -3 -10 -1 -10 4 0 6 5 11 10 11 6 0 10 -2 10
-4z m1920 0 c0 -3 -4 -8 -10 -11 -5 -3 -10 -1 -10 4 0 6 5 11 10 11 6 0 10 -2
10 -4z m-1450 -16 c0 -5 -9 -14 -20 -20 -14 -8 -20 -8 -20 0 0 6 -6 8 -12 5
-7 -4 -4 1 6 9 22 18 46 21 46 6z m3285 0 c4 -6 2 -17 -4 -24 -6 -7 -7 -16 -3
-21 4 -4 -2 -5 -14 -1 -12 4 -32 2 -45 -3 -20 -8 -13 -10 36 -11 l60 -1 -35
-15 c-19 -8 -42 -13 -51 -11 -9 2 -16 -2 -16 -10 0 -9 7 -13 19 -10 10 3 21 1
24 -4 3 -5 -10 -10 -28 -10 -30 -2 -31 -2 -5 -6 31 -5 37 -23 7 -23 -11 0 -20
-4 -20 -10 0 -5 -10 -10 -22 -10 -19 0 -20 2 -8 10 13 8 12 10 -2 10 -10 0
-18 7 -18 15 0 8 -7 15 -15 15 -20 0 -19 29 1 37 13 5 13 7 2 14 -10 6 -8 9 7
9 17 0 17 2 5 10 -13 9 -13 10 0 10 8 0 21 9 28 21 11 17 20 20 45 15 23 -4
28 -3 17 4 -12 8 -11 10 7 10 12 0 25 -5 28 -10z m-1357 -10 c-14 -4 -31 -11
-37 -15 -6 -3 -11 1 -11 9 0 12 10 16 38 15 34 -1 35 -1 10 -9z m-2440 -7
c-21 -2 -55 -2 -75 0 -21 2 -4 4 37 4 41 0 58 -2 38 -4z m442 -3 c0 -5 -7 -10
-16 -10 -8 0 -12 5 -9 10 3 6 10 10 16 10 5 0 9 -4 9 -10z m160 6 c0 -20 -17
-36 -39 -37 -23 0 -24 -1 -6 -9 17 -7 17 -9 3 -9 -10 -1 -18 -8 -18 -16 0 -18
1 -18 32 -6 27 10 26 11 29 -76 2 -29 -1 -56 -4 -60 -9 -8 -147 -12 -147 -4 1
14 16 29 35 34 17 4 16 5 -5 7 l-25 2 25 8 c25 8 25 8 2 9 -13 1 -21 5 -17 10
3 5 1 12 -3 15 -16 10 -1 56 18 56 12 0 18 8 18 25 0 14 2 28 5 32 11 10 97
27 97 19z m310 -6 c-17 -5 -19 -8 -7 -9 9 -1 17 -8 17 -16 0 -9 9 -15 23 -14
21 0 21 1 2 9 -11 5 -17 9 -13 9 3 1 13 4 21 7 24 9 29 -34 5 -47 -15 -8 -19
-8 -14 0 4 6 0 11 -8 11 -10 0 -16 -9 -16 -25 0 -15 -6 -25 -15 -25 -26 0 -4
-30 29 -39 29 -8 27 -9 -22 -10 -33 -1 -51 3 -47 9 3 6 -1 10 -9 10 -25 0 -19
20 7 21 21 1 21 1 -3 9 -17 5 -19 8 -7 9 9 1 17 6 17 12 0 6 -6 9 -14 6 -10
-4 -12 0 -9 14 3 11 14 19 26 19 20 0 20 0 1 15 -10 8 -14 15 -9 15 6 0 3 5
-5 10 -11 7 -2 9 30 9 37 -1 41 -2 20 -9z m87 4 c-3 -3 -12 -4 -19 -1 -8 3 -5
6 6 6 11 1 17 -2 13 -5z m713 -4 c0 -5 -5 -10 -11 -10 -5 0 -7 5 -4 10 3 6 8
10 11 10 2 0 4 -4 4 -10z m197 3 c-50 -3 -57 -6 -47 -19 11 -12 7 -14 -24 -14
-39 0 -39 0 -30 24 5 13 21 16 83 14 70 -2 72 -2 18 -5z m639 -5 c4 -6 0 -16
-9 -23 -9 -7 -13 -16 -9 -20 4 -5 -1 -5 -10 -2 -10 4 -18 2 -18 -4 0 -20 21
-49 35 -49 19 0 27 -15 30 -56 2 -30 -1 -34 -24 -35 -24 0 -24 -1 -6 -9 26
-11 22 -12 -48 -15 -32 -1 -60 2 -63 7 -3 4 3 8 13 9 16 0 16 1 -2 9 -18 8
-18 9 5 10 24 2 23 3 -5 10 -16 4 -25 8 -20 9 6 1 9 22 8 52 -2 29 1 48 6 45
5 -3 20 -2 33 4 22 9 22 9 -6 7 -22 -2 -29 3 -32 19 -3 18 1 20 21 17 13 -3
34 2 47 11 27 19 44 20 54 4z m144 -4 c0 -2 -12 -4 -27 -4 -21 0 -24 3 -14 9
13 8 41 5 41 -5z m1173 9 c-7 -2 -19 -2 -25 0 -7 3 -2 5 12 5 14 0 19 -2 13
-5z m-4295 -34 c-10 -7 -8 -9 7 -9 18 -1 18 -2 3 -10 -23 -14 -47 -2 -41 19 3
13 11 17 25 13 15 -4 17 -7 6 -13z m377 12 c3 -5 -6 -8 -20 -7 -35 4 -44 16
-12 16 14 0 28 -4 32 -9z m1698 2 c-7 -2 -19 -2 -25 0 -7 3 -2 5 12 5 14 0 19
-2 13 -5z m397 -8 c0 -9 -10 -15 -22 -16 -17 -1 -19 -2 -5 -6 9 -2 17 -13 17
-24 0 -14 -7 -19 -26 -19 -14 0 -23 4 -19 10 5 9 -27 14 -72 13 -7 -1 -10 3
-7 8 7 11 -27 11 -44 0 -11 -7 -11 -9 2 -14 9 -4 16 -12 16 -18 0 -8 -4 -8
-15 1 -13 11 -15 7 -15 -24 0 -34 -2 -36 -32 -36 -25 0 -29 3 -18 10 12 8 10
10 -9 10 -28 0 -18 15 14 23 15 4 13 5 -7 6 -21 1 -28 6 -28 21 0 14 6 20 18
18 9 -2 16 3 15 10 -2 8 15 12 60 13 34 1 53 4 43 6 -36 9 6 23 72 23 48 0 62
-3 62 -15z m-2177 -2 c-7 -2 -21 -2 -30 0 -10 3 -4 5 12 5 17 0 24 -2 18 -5z
m1851 -12 c3 -5 -16 -6 -42 -4 -69 7 -74 11 -15 12 28 1 54 -3 57 -8z m-20
-21 c25 -9 37 -40 16 -40 -5 0 -7 7 -4 15 4 10 0 15 -12 15 -11 0 -30 3 -44 6
-20 4 -22 3 -10 -5 9 -6 10 -11 3 -11 -19 0 -43 12 -43 21 0 12 62 11 94 -1z
m836 -10 c0 -5 -2 -10 -4 -10 -3 0 -8 5 -11 10 -3 6 -1 10 4 10 6 0 11 -4 11
-10z m1265 -11 c11 -17 -1 -21 -15 -4 -8 9 -8 15 -2 15 6 0 14 -5 17 -11z
m-3798 -5 c-3 -3 -12 -4 -19 -1 -8 3 -5 6 6 6 11 1 17 -2 13 -5z m960 0 c-3
-3 -12 -4 -19 -1 -8 3 -5 6 6 6 11 1 17 -2 13 -5z m960 0 c-3 -3 -12 -4 -19
-1 -8 3 -5 6 6 6 11 1 17 -2 13 -5z m965 -23 c-8 -4 -13 -11 -13 -15 3 -19 -2
-24 -29 -29 -38 -8 -60 0 -53 19 3 8 7 13 10 11 2 -3 20 2 41 9 42 15 63 18
44 5z m-2959 -21 c3 -13 0 -20 -10 -20 -8 0 -11 5 -8 10 4 6 -5 10 -19 10 -14
0 -26 5 -26 10 0 6 13 10 29 10 20 0 30 -6 34 -20z m3737 -14 c0 -9 13 -16 33
-19 26 -4 24 -4 -8 -3 -22 0 -38 5 -37 10 2 5 -2 13 -10 17 -10 7 -9 9 5 9 9
0 17 -6 17 -14z m-3672 -3 c-10 -2 -26 -2 -35 0 -10 3 -2 5 17 5 19 0 27 -2
18 -5z m1920 0 c-10 -2 -26 -2 -35 0 -10 3 -2 5 17 5 19 0 27 -2 18 -5z m1859
1 c-3 -3 -12 -4 -19 -1 -8 3 -5 6 6 6 11 1 17 -2 13 -5z m46 -1 c-7 -2 -19 -2
-25 0 -7 3 -2 5 12 5 14 0 19 -2 13 -5z m-2026 -19 c-3 -3 -12 -4 -19 -1 -8 3
-5 6 6 6 11 1 17 -2 13 -5z m-1762 -14 c8 -13 -5 -13 -25 0 -13 8 -13 10 2 10
9 0 20 -4 23 -10z m898 3 c-7 -2 -21 -2 -30 0 -10 3 -4 5 12 5 17 0 24 -2 18
-5z m1027 -3 c0 -13 -11 -13 -30 0 -12 8 -11 10 8 10 12 0 22 -4 22 -10z m893
3 c-7 -2 -21 -2 -30 0 -10 3 -4 5 12 5 17 0 24 -2 18 -5z m-2927 -35 c2 -14
-1 -15 -17 -5 -23 15 -25 30 -2 25 9 -2 17 -11 19 -20z m969 12 c18 -8 18 -9
2 -9 -12 -1 -16 -5 -11 -13 6 -10 5 -10 -8 -1 -8 7 -18 10 -21 6 -4 -3 -7 1
-7 10 0 18 14 20 45 7z m945 1 c0 -14 -34 -23 -54 -15 -14 5 -15 9 -4 15 18
12 58 11 58 0z m966 -15 c2 -13 -1 -15 -8 -8 -6 6 -17 8 -24 5 -9 -3 -14 1
-14 12 0 23 42 16 46 -9z m914 15 c0 -12 -35 -20 -51 -11 -8 6 -3 10 17 13 16
2 30 5 32 6 1 0 2 -3 2 -8z m37 3 c-3 -3 -12 -4 -19 -1 -8 3 -5 6 6 6 11 1 17
-2 13 -5z m-2810 -10 c-3 -3 -12 -4 -19 -1 -8 3 -5 6 6 6 11 1 17 -2 13 -5z
m1833 -217 c0 -9 10 -12 33 -10 l32 3 -33 -17 c-27 -14 -35 -15 -41 -4 -6 10
-10 9 -14 -3 -4 -9 -12 -16 -18 -16 -8 0 -8 4 1 15 10 12 10 15 0 15 -10 0
-10 3 0 15 15 19 40 20 40 2z m-2800 -57 c0 -5 -4 -10 -10 -10 -5 0 -10 5 -10
10 0 6 5 10 10 10 6 0 10 -4 10 -10z m224 -6 c5 -14 4 -15 -9 -4 -17 14 -19
20 -6 20 5 0 12 -7 15 -16z m1786 6 c0 -12 -8 -12 -35 0 -18 8 -17 9 8 9 15 1
27 -3 27 -9z m1094 -6 c5 -14 4 -15 -9 -4 -17 14 -19 20 -6 20 5 0 12 -7 15
-16z m-3384 -14 c13 -8 13 -10 -2 -10 -9 0 -20 5 -23 10 -8 13 5 13 25 0z
m1622 -7 c-12 -2 -20 -9 -17 -14 4 -5 -1 -9 -9 -9 -9 0 -16 4 -16 9 0 12 19
20 45 19 17 -1 16 -1 -3 -5z"/>
<path d="M1338 1063 c7 -3 16 -2 19 1 4 3 -2 6 -13 5 -11 0 -14 -3 -6 -6z"/>
<path d="M1218 983 c7 -3 16 -2 19 1 4 3 -2 6 -13 5 -11 0 -14 -3 -6 -6z"/>
<path d="M2308 693 c6 -2 18 -2 25 0 6 3 1 5 -13 5 -14 0 -19 -2 -12 -5z"/>
<path d="M1358 523 c7 -3 16 -2 19 1 4 3 -2 6 -13 5 -11 0 -14 -3 -6 -6z"/>
<path d="M1363 473 c9 -2 23 -2 30 0 6 3 -1 5 -18 5 -16 0 -22 -2 -12 -5z"/>
<path d="M1298 453 c7 -3 16 -2 19 1 4 3 -2 6 -13 5 -11 0 -14 -3 -6 -6z"/>
<path d="M3258 613 c7 -3 16 -2 19 1 4 3 -2 6 -13 5 -11 0 -14 -3 -6 -6z"/>
<path d="M3338 473 c7 -3 16 -2 19 1 4 3 -2 6 -13 5 -11 0 -14 -3 -6 -6z"/>
<path d="M3210 1110 l35 -7 -35 -2 c-19 -2 -29 -5 -22 -8 7 -3 29 -2 49 2 45
8 26 25 -27 24 l-35 -2 35 -7z"/>
<path d="M2628 1103 c6 -2 18 -2 25 0 6 3 1 5 -13 5 -14 0 -19 -2 -12 -5z"/>
<path d="M4030 1093 c0 -7 -7 -13 -15 -13 -8 0 -15 -2 -15 -4 0 -2 -2 -11 -5
-18 -8 -20 118 -43 160 -29 28 9 29 9 5 10 -20 1 -22 3 -10 11 13 9 13 10 0
11 -10 0 -8 3 5 9 18 8 18 9 -5 9 -32 1 -65 -18 -35 -20 17 -1 16 -2 -5 -9
-14 -4 -34 -8 -44 -9 -20 -1 -20 -1 0 14 17 13 17 14 2 15 -9 0 -20 5 -24 11
-5 8 1 10 19 6 27 -7 87 1 87 12 0 3 -27 6 -60 6 -41 0 -60 -4 -60 -12z"/>
<path d="M765 1090 c-3 -5 -1 -10 4 -10 6 0 11 5 11 10 0 6 -2 10 -4 10 -3 0
-8 -4 -11 -10z"/>
<path d="M958 1093 c7 -3 16 -2 19 1 4 3 -2 6 -13 5 -11 0 -14 -3 -6 -6z"/>
<path d="M1933 1093 c11 -3 16 -11 13 -19 -4 -11 5 -14 42 -13 26 1 37 4 25 6
-12 2 -27 11 -33 19 -7 8 -24 13 -39 13 -18 -1 -20 -3 -8 -6z"/>
<path d="M268 1083 c7 -3 16 -2 19 1 4 3 -2 6 -13 5 -11 0 -14 -3 -6 -6z"/>
<path d="M1738 1083 c7 -3 16 -2 19 1 4 3 -2 6 -13 5 -11 0 -14 -3 -6 -6z"/>
<path d="M4333 1073 c9 -2 23 -2 30 0 6 3 -1 5 -18 5 -16 0 -22 -2 -12 -5z"/>
<path d="M4390 1065 c-16 -19 -3 -19 30 0 24 13 24 14 4 15 -12 0 -27 -7 -34
-15z"/>
<path d="M286 1059 c3 -5 -1 -9 -9 -9 -8 0 -17 -7 -21 -15 -6 -17 21 -19 64
-5 l25 8 -25 1 c-18 1 -21 4 -12 10 10 6 9 10 -7 14 -12 3 -19 1 -15 -4z"/>
<path d="M3258 1063 c7 -3 16 -2 19 1 4 3 -2 6 -13 5 -11 0 -14 -3 -6 -6z"/>
<path d="M5010 1020 c-13 -9 -13 -11 0 -20 12 -8 12 -10 -5 -10 -15 0 -17 -2
-6 -9 11 -7 11 -9 0 -14 -11 -3 -10 -7 4 -12 24 -10 29 -3 25 39 -2 29 -6 34
-18 26z"/>
<path d="M210 1009 c0 -5 28 -9 63 -8 71 1 67 5 -10 12 -29 2 -53 0 -53 -4z"/>
<path d="M180 981 c0 -6 5 -13 12 -17 6 -4 8 -3 4 4 -4 6 5 12 21 15 26 4 26
4 -4 6 -18 0 -33 -3 -33 -8z"/>
<path d="M258 983 c7 -3 16 -2 19 1 4 3 -2 6 -13 5 -11 0 -14 -3 -6 -6z"/>
<path d="M2178 983 c7 -3 16 -2 19 1 4 3 -2 6 -13 5 -11 0 -14 -3 -6 -6z"/>
<path d="M3138 983 c7 -3 16 -2 19 1 4 3 -2 6 -13 5 -11 0 -14 -3 -6 -6z"/>
<path d="M4098 983 c7 -3 16 -2 19 1 4 3 -2 6 -13 5 -11 0 -14 -3 -6 -6z"/>
<path d="M175 910 c-3 -5 -1 -10 4 -10 6 0 11 5 11 10 0 6 -2 10 -4 10 -3 0
-8 -4 -11 -10z"/>
<path d="M230 829 c-8 -9 -26 -13 -47 -11 -25 3 -33 0 -33 -12 0 -9 0 -19 0
-23 -1 -12 59 -22 66 -12 3 5 -1 9 -9 9 -8 0 -20 7 -27 15 -10 12 -9 15 8 15
11 0 22 -6 24 -12 3 -9 10 -8 22 5 10 9 16 22 14 29 -3 8 -8 7 -18 -3z"/>
<path d="M310 779 c0 -8 -13 -10 -36 -6 -31 5 -40 2 -56 -18 -15 -20 -29 -25
-64 -25 -33 0 -44 -4 -44 -15 0 -12 3 -13 19 -3 14 8 28 9 52 1 l34 -10 -25
-11 c-21 -8 -22 -11 -8 -17 14 -5 15 -10 5 -20 -7 -7 -15 -11 -19 -9 -3 2 -4
-6 0 -18 3 -12 7 -17 10 -10 2 8 9 9 23 2 13 -8 19 -7 19 0 0 6 5 8 10 5 6 -3
10 2 10 12 0 15 2 16 10 3 8 -12 10 -11 10 7 0 12 6 24 13 26 9 4 9 8 -1 15
-11 7 -8 11 10 17 62 21 64 23 32 24 -20 1 -31 6 -31 16 0 10 10 15 31 15 24
0 27 3 16 10 -12 8 -11 10 8 10 12 0 21 -5 20 -12 -2 -6 6 -13 17 -15 16 -3
17 -2 5 6 -8 6 -10 11 -5 11 6 0 3 5 -5 10 -21 13 -60 12 -60 -1z"/>
<path d="M76 704 c-4 -14 -5 -29 -2 -31 3 -3 8 7 12 21 3 15 4 29 1 32 -2 3
-8 -7 -11 -22z"/>
<path d="M388 693 c6 -2 18 -2 25 0 6 3 1 5 -13 5 -14 0 -19 -2 -12 -5z"/>
<path d="M105 680 c-3 -5 1 -10 9 -10 9 0 16 5 16 10 0 6 -4 10 -9 10 -6 0
-13 -4 -16 -10z"/>
<path d="M338 683 c6 -2 18 -2 25 0 6 3 1 5 -13 5 -14 0 -19 -2 -12 -5z"/>
<path d="M70 654 c0 -17 17 -36 24 -26 3 5 -1 15 -9 22 -8 7 -15 9 -15 4z"/>
<path d="M1040 640 c0 -5 5 -10 10 -10 6 0 10 -7 10 -15 0 -10 -14 -17 -40
-21 -40 -7 -51 -17 -27 -28 6 -3 3 -4 -7 -3 -10 1 -21 -4 -24 -11 -2 -7 2 -13
9 -11 8 1 32 0 54 -1 l40 -3 -40 -7 -40 -7 40 -3 c39 -2 39 -3 10 -10 l-30 -8
30 -2 c26 -1 27 -3 10 -10 -12 -5 -14 -9 -6 -9 11 -1 10 -5 -5 -16 -22 -16
-64 -20 -64 -5 0 6 -7 10 -15 10 -21 0 -19 -16 6 -41 16 -16 29 -20 56 -16 34
6 97 50 86 61 -4 3 5 7 18 7 17 1 19 3 6 6 -9 2 -15 9 -12 14 4 5 2 9 -2 9 -5
0 -9 9 -10 19 -1 14 4 19 18 16 10 -2 19 0 19 6 0 5 -9 9 -21 9 -14 0 -19 5
-16 15 4 8 1 17 -4 21 -7 4 -7 10 0 17 13 13 15 30 2 22 -5 -3 -12 -1 -16 5
-8 13 -45 13 -45 0z m20 -70 c0 -5 -7 -10 -16 -10 -8 0 -12 5 -9 10 3 6 10 10
16 10 5 0 9 -4 9 -10z"/>
<path d="M1975 640 c17 -7 17 -9 3 -9 -10 -1 -18 -5 -18 -11 0 -5 -26 -11 -57
-12 l-58 -1 60 -7 c33 -4 54 -7 46 -8 -7 -1 -11 -8 -7 -17 3 -8 0 -14 -6 -12
-6 1 -13 -4 -16 -12 -3 -10 0 -12 12 -8 16 6 18 2 18 -48 0 -50 -2 -56 -19
-54 -31 3 -40 -1 -40 -15 0 -8 6 -12 15 -9 8 3 18 0 22 -7 14 -23 65 5 67 36
0 15 6 30 13 34 9 6 9 9 -1 13 -9 4 -7 6 6 7 l20 1 -20 9 c-18 8 -18 9 5 10
l25 2 -25 8 c-17 5 -19 8 -7 9 21 1 23 21 2 21 -23 0 -18 17 8 25 21 7 21 8
-6 12 -25 4 -28 8 -23 29 5 20 3 24 -16 23 -22 0 -22 -1 -3 -9z"/>
<path d="M2928 643 c7 -3 16 -2 19 1 4 3 -2 6 -13 5 -11 0 -14 -3 -6 -6z"/>
<path d="M3880 646 c0 -2 9 -6 20 -9 11 -3 20 -1 20 4 0 5 -9 9 -20 9 -11 0
-20 -2 -20 -4z"/>
<path d="M4840 646 c0 -2 9 -6 20 -9 11 -3 20 -1 20 4 0 5 -9 9 -20 9 -11 0
-20 -2 -20 -4z"/>
<path d="M135 630 c-3 -5 -1 -10 4 -10 6 0 11 5 11 10 0 6 -2 10 -4 10 -3 0
-8 -4 -11 -10z"/>
<path d="M938 603 c12 -2 30 -2 40 0 9 3 -1 5 -23 4 -22 0 -30 -2 -17 -4z"/>
<path d="M4115 600 c-3 -5 1 -10 9 -10 9 0 16 5 16 10 0 6 -4 10 -9 10 -6 0
-13 -4 -16 -10z"/>
<path d="M4763 603 c15 -2 37 -2 50 0 12 2 0 4 -28 4 -27 0 -38 -2 -22 -4z"/>
<path d="M90 590 c0 -5 7 -7 15 -4 8 4 15 8 15 10 0 2 -7 4 -15 4 -8 0 -15 -4
-15 -10z"/>
<path d="M190 591 c0 -4 11 -6 25 -3 14 2 25 6 25 8 0 2 -11 4 -25 4 -14 0
-25 -4 -25 -9z"/>
<path d="M3070 590 c0 -5 7 -7 15 -4 8 4 15 8 15 10 0 2 -7 4 -15 4 -8 0 -15
-4 -15 -10z"/>
<path d="M4848 593 c-29 -5 -37 -17 -15 -27 6 -3 3 -4 -7 -3 -10 1 -21 -3 -23
-9 -2 -7 18 -12 59 -13 59 -2 73 11 23 21 -18 4 -17 6 8 16 48 20 29 26 -45
15z"/>
<path d="M174 573 c4 -8 1 -13 -8 -13 -26 0 -18 -15 9 -18 29 -2 32 10 8 29
-11 10 -14 10 -9 2z"/>
<path d="M695 570 c-17 -8 -16 -8 8 -7 15 1 27 5 27 9 0 10 -9 9 -35 -2z"/>
<path d="M2094 573 c3 -6 0 -13 -6 -16 -9 -3 -7 -7 5 -12 26 -11 34 3 12 23
-10 9 -15 12 -11 5z"/>
<path d="M4014 573 c4 -8 1 -13 -8 -13 -26 0 -18 -15 9 -18 29 -2 32 10 8 29
-11 10 -14 10 -9 2z"/>
<path d="M90 521 c0 -6 5 -13 12 -17 6 -4 8 -3 4 4 -3 6 2 13 11 15 14 4 13 5
-4 6 -13 0 -23 -3 -23 -8z"/>
<path d="M2308 523 c6 -2 18 -2 25 0 6 3 1 5 -13 5 -14 0 -19 -2 -12 -5z"/>
<path d="M3808 523 c7 -3 16 -2 19 1 4 3 -2 6 -13 5 -11 0 -14 -3 -6 -6z"/>
<path d="M4768 523 c7 -3 16 -2 19 1 4 3 -2 6 -13 5 -11 0 -14 -3 -6 -6z"/>
<path d="M4853 523 c15 -2 39 -2 55 0 15 2 2 4 -28 4 -30 0 -43 -2 -27 -4z"/>
<path d="M253 513 c9 -2 15 -9 12 -14 -4 -5 15 -8 42 -7 42 1 43 2 13 6 -29 4
-32 6 -15 12 14 6 8 8 -25 8 -25 0 -37 -2 -27 -5z"/>
<path d="M138 503 c7 -3 16 -2 19 1 4 3 -2 6 -13 5 -11 0 -14 -3 -6 -6z"/>
<path d="M582 503 c-12 -2 -20 -9 -17 -14 4 -5 -4 -9 -17 -10 -13 0 -17 -3
-10 -6 14 -5 72 18 72 29 0 5 -1 7 -2 7 -2 -1 -13 -4 -26 -6z"/>
<path d="M948 503 c6 -2 18 -2 25 0 6 3 1 5 -13 5 -14 0 -19 -2 -12 -5z"/>
<path d="M1908 503 c6 -2 18 -2 25 0 6 3 1 5 -13 5 -14 0 -19 -2 -12 -5z"/>
<path d="M4773 503 c9 -2 25 -2 35 0 9 3 1 5 -18 5 -19 0 -27 -2 -17 -5z"/>
<path d="M4863 503 c9 -2 25 -2 35 0 9 3 1 5 -18 5 -19 0 -27 -2 -17 -5z"/>
<path d="M4928 503 c6 -2 18 -2 25 0 6 3 1 5 -13 5 -14 0 -19 -2 -12 -5z"/>
<path d="M228 493 c7 -3 16 -2 19 1 4 3 -2 6 -13 5 -11 0 -14 -3 -6 -6z"/>
<path d="M1188 493 c7 -3 16 -2 19 1 4 3 -2 6 -13 5 -11 0 -14 -3 -6 -6z"/>
<path d="M143 483 c9 -2 25 -2 35 0 9 3 1 5 -18 5 -19 0 -27 -2 -17 -5z"/>
<path d="M998 483 c7 -3 16 -2 19 1 4 3 -2 6 -13 5 -11 0 -14 -3 -6 -6z"/>
<path d="M2088 483 c7 -3 16 -2 19 1 4 3 -2 6 -13 5 -11 0 -14 -3 -6 -6z"/>
<path d="M3998 483 c6 -2 18 -2 25 0 6 3 1 5 -13 5 -14 0 -19 -2 -12 -5z"/>
<path d="M4758 483 c12 -2 30 -2 40 0 9 3 -1 5 -23 4 -22 0 -30 -2 -17 -4z"/>
<path d="M4838 483 c7 -3 16 -2 19 1 4 3 -2 6 -13 5 -11 0 -14 -3 -6 -6z"/>
<path d="M4878 483 c7 -3 16 -2 19 1 4 3 -2 6 -13 5 -11 0 -14 -3 -6 -6z"/>
<path d="M4943 483 c9 -2 25 -2 35 0 9 3 1 5 -18 5 -19 0 -27 -2 -17 -5z"/>
<path d="M218 473 c12 -2 32 -2 45 0 12 2 2 4 -23 4 -25 0 -35 -2 -22 -4z"/>
<path d="M2293 473 c15 -2 37 -2 50 0 12 2 0 4 -28 4 -27 0 -38 -2 -22 -4z"/>
<path d="M2378 473 c7 -3 16 -2 19 1 4 3 -2 6 -13 5 -11 0 -14 -3 -6 -6z"/>
<path d="M3138 473 c7 -3 16 -2 19 1 4 3 -2 6 -13 5 -11 0 -14 -3 -6 -6z"/>
<path d="M208 453 c6 -2 18 -2 25 0 6 3 1 5 -13 5 -14 0 -19 -2 -12 -5z"/>
<path d="M2268 453 c6 -2 18 -2 25 0 6 3 1 5 -13 5 -14 0 -19 -2 -12 -5z"/>
<path d="M2383 453 c9 -2 23 -2 30 0 6 3 -1 5 -18 5 -16 0 -22 -2 -12 -5z"/>
<path d="M3088 453 c6 -2 18 -2 25 0 6 3 1 5 -13 5 -14 0 -19 -2 -12 -5z"/>
<path d="M3448 453 c7 -3 16 -2 19 1 4 3 -2 6 -13 5 -11 0 -14 -3 -6 -6z"/>
<path d="M4188 453 c6 -2 18 -2 25 0 6 3 1 5 -13 5 -14 0 -19 -2 -12 -5z"/>
<path d="M4350 425 c0 -14 14 -20 35 -15 6 2 18 2 29 2 18 -1 18 -1 0 13 -25
19 -64 19 -64 0z"/>
<path d="M2065 420 c-3 -5 1 -10 9 -10 9 0 16 5 16 10 0 6 -4 10 -9 10 -6 0
-13 -4 -16 -10z"/>
<path d="M3975 420 c-3 -5 3 -10 15 -10 12 0 18 5 15 10 -3 6 -10 10 -15 10
-5 0 -12 -4 -15 -10z"/>
<path d="M510 416 c0 -9 40 -13 46 -5 3 5 -6 9 -20 9 -14 0 -26 -2 -26 -4z"/>
<path d="M1858 413 c7 -3 16 -2 19 1 4 3 -2 6 -13 5 -11 0 -14 -3 -6 -6z"/>
<path d="M3710 411 c0 -6 5 -13 12 -17 8 -5 6 -10 -8 -15 -15 -6 -16 -8 -3 -8
9 -1 24 10 33 24 16 24 16 25 -9 25 -14 0 -25 -4 -25 -9z"/>
<path d="M4730 410 c0 -12 37 -14 44 -2 2 4 -6 9 -20 10 -13 1 -24 -3 -24 -8z"/>
<path d="M155 400 c-3 -5 -2 -10 4 -10 5 0 13 5 16 10 3 6 2 10 -4 10 -5 0
-13 -4 -16 -10z"/>
<path d="M1100 400 c0 -5 5 -10 11 -10 5 0 7 5 4 10 -3 6 -8 10 -11 10 -2 0
-4 -4 -4 -10z"/>
<path d="M90 380 c0 -5 5 -10 11 -10 5 0 7 5 4 10 -3 6 -8 10 -11 10 -2 0 -4
-4 -4 -10z"/>
<path d="M618 373 c7 -3 16 -2 19 1 4 3 -2 6 -13 5 -11 0 -14 -3 -6 -6z"/>
<path d="M2908 373 c7 -3 16 -2 19 1 4 3 -2 6 -13 5 -11 0 -14 -3 -6 -6z"/>
<path d="M3538 373 c7 -3 16 -2 19 1 4 3 -2 6 -13 5 -11 0 -14 -3 -6 -6z"/>
<path d="M4468 373 c12 -2 30 -2 40 0 9 3 -1 5 -23 4 -22 0 -30 -2 -17 -4z"/>
<path d="M4828 373 c7 -3 16 -2 19 1 4 3 -2 6 -13 5 -11 0 -14 -3 -6 -6z"/>
<path d="M650 315 c0 -8 -4 -15 -10 -15 -5 0 -10 5 -10 11 0 8 -4 9 -13 0 -8
-6 -18 -7 -22 -3 -5 4 -5 1 -1 -5 4 -7 18 -13 31 -13 13 0 26 -6 28 -12 3 -7
6 -1 6 15 1 30 6 30 79 8 17 -5 32 -7 32 -4 0 3 6 0 14 -6 10 -8 16 -9 21 -1
3 5 5 10 3 11 -2 0 -11 2 -21 4 -42 8 -28 16 18 11 35 -4 44 -3 30 3 -26 13
-72 13 -80 2 -3 -6 -18 -6 -38 0 -46 13 -67 11 -67 -6z"/>
<path d="M1610 315 c0 -8 -4 -15 -10 -15 -5 0 -10 5 -10 11 0 8 -4 9 -13 0 -8
-6 -18 -7 -22 -3 -5 4 -5 1 -1 -5 4 -7 18 -13 31 -13 13 0 26 -6 28 -12 3 -7
6 -1 6 15 1 30 6 30 79 8 17 -5 32 -7 32 -4 0 3 6 0 14 -6 10 -8 16 -9 21 -1
3 5 5 10 3 11 -2 0 -11 2 -21 4 -42 8 -28 16 18 11 35 -4 44 -3 30 3 -26 13
-72 13 -80 2 -3 -6 -18 -6 -38 0 -46 13 -67 11 -67 -6z"/>
<path d="M2570 315 c0 -8 -4 -15 -10 -15 -5 0 -10 5 -10 11 0 8 -4 9 -13 0 -8
-6 -18 -7 -22 -3 -5 4 -5 1 -1 -5 4 -7 18 -13 31 -13 13 0 26 -6 28 -12 3 -7
6 -1 6 15 1 30 6 30 79 8 17 -5 32 -7 32 -4 0 3 6 0 14 -6 10 -8 16 -9 21 -1
3 5 5 10 3 11 -2 0 -11 2 -21 4 -42 8 -28 16 18 11 35 -4 44 -3 30 3 -26 13
-72 13 -80 2 -3 -6 -18 -6 -38 0 -46 13 -67 11 -67 -6z"/>
<path d="M3530 315 c0 -8 -4 -15 -10 -15 -5 0 -10 5 -10 11 0 8 -4 9 -13 0 -8
-6 -18 -7 -22 -3 -5 4 -5 1 -1 -5 4 -7 18 -13 31 -13 13 0 26 -6 28 -12 3 -7
6 -1 6 15 1 30 6 30 79 8 17 -5 32 -7 32 -4 0 3 6 0 14 -6 10 -8 16 -9 21 -1
3 5 5 10 3 11 -2 0 -11 2 -21 4 -42 8 -28 16 18 11 35 -4 44 -3 30 3 -26 13
-72 13 -80 2 -3 -6 -18 -6 -38 0 -46 13 -67 11 -67 -6z"/>
<path d="M4490 315 c0 -8 -4 -15 -10 -15 -5 0 -10 5 -10 11 0 8 -4 9 -13 0 -8
-6 -18 -7 -22 -3 -5 4 -5 1 -1 -5 4 -7 18 -13 31 -13 13 0 26 -6 28 -12 3 -7
6 -1 6 15 1 30 6 30 79 8 17 -5 32 -7 32 -4 0 3 6 0 14 -6 10 -8 16 -9 21 -1
3 5 5 10 3 11 -2 0 -11 2 -21 4 -42 8 -28 16 18 11 35 -4 44 -3 30 3 -26 13
-72 13 -80 2 -3 -6 -18 -6 -38 0 -46 13 -67 11 -67 -6z"/>
<path d="M897 313 c-16 -3 -25 -9 -21 -15 5 -7 -2 -9 -19 -6 -15 3 -24 1 -21
-3 3 -5 19 -9 35 -9 18 0 28 4 24 10 -4 6 5 10 19 10 14 0 26 5 26 10 0 6 -3
9 -7 9 -5 -1 -20 -4 -36 -6z"/>
<path d="M1028 313 c7 -3 16 -2 19 1 4 3 -2 6 -13 5 -11 0 -14 -3 -6 -6z"/>
<path d="M1857 313 c-16 -3 -25 -9 -21 -15 5 -7 -2 -9 -19 -6 -15 3 -24 1 -21
-3 3 -5 19 -9 35 -9 18 0 28 4 24 10 -4 6 5 10 19 10 14 0 26 5 26 10 0 6 -3
9 -7 9 -5 -1 -20 -4 -36 -6z"/>
<path d="M1988 313 c7 -3 16 -2 19 1 4 3 -2 6 -13 5 -11 0 -14 -3 -6 -6z"/>
<path d="M2817 313 c-16 -3 -25 -9 -21 -15 5 -7 -2 -9 -19 -6 -15 3 -24 1 -21
-3 3 -5 19 -9 35 -9 18 0 28 4 24 10 -4 6 5 10 19 10 14 0 26 5 26 10 0 6 -3
9 -7 9 -5 -1 -20 -4 -36 -6z"/>
<path d="M2948 313 c7 -3 16 -2 19 1 4 3 -2 6 -13 5 -11 0 -14 -3 -6 -6z"/>
<path d="M3777 313 c-16 -3 -25 -9 -21 -15 5 -7 -2 -9 -19 -6 -15 3 -24 1 -21
-3 3 -5 19 -9 35 -9 18 0 28 4 24 10 -4 6 5 10 19 10 14 0 26 5 26 10 0 6 -3
9 -7 9 -5 -1 -20 -4 -36 -6z"/>
<path d="M3908 313 c7 -3 16 -2 19 1 4 3 -2 6 -13 5 -11 0 -14 -3 -6 -6z"/>
<path d="M4737 313 c-16 -3 -25 -9 -21 -15 5 -7 -2 -9 -19 -6 -15 3 -24 1 -21
-3 3 -5 19 -9 35 -9 18 0 28 4 24 10 -4 6 5 10 19 10 14 0 26 5 26 10 0 6 -3
9 -7 9 -5 -1 -20 -4 -36 -6z"/>
<path d="M4868 313 c7 -3 16 -2 19 1 4 3 -2 6 -13 5 -11 0 -14 -3 -6 -6z"/>
<path d="M960 300 c8 -5 22 -10 30 -10 13 0 13 1 0 10 -8 5 -22 10 -30 10 -13
0 -13 -1 0 -10z"/>
<path d="M1920 300 c8 -5 22 -10 30 -10 13 0 13 1 0 10 -8 5 -22 10 -30 10
-13 0 -13 -1 0 -10z"/>
<path d="M2880 300 c8 -5 22 -10 30 -10 13 0 13 1 0 10 -8 5 -22 10 -30 10
-13 0 -13 -1 0 -10z"/>
<path d="M3840 300 c8 -5 22 -10 30 -10 13 0 13 1 0 10 -8 5 -22 10 -30 10
-13 0 -13 -1 0 -10z"/>
<path d="M4800 300 c8 -5 22 -10 30 -10 13 0 13 1 0 10 -8 5 -22 10 -30 10
-13 0 -13 -1 0 -10z"/>
<path d="M670 289 c0 -5 4 -8 9 -5 5 4 11 0 14 -6 2 -7 8 -9 13 -5 5 4 2 12
-6 17 -20 13 -30 12 -30 -1z"/>
<path d="M1033 293 c15 -2 37 -2 50 0 12 2 0 4 -28 4 -27 0 -38 -2 -22 -4z"/>
<path d="M1630 289 c0 -5 4 -8 9 -5 5 4 11 0 14 -6 2 -7 8 -9 13 -5 5 4 2 12
-6 17 -20 13 -30 12 -30 -1z"/>
<path d="M1993 293 c15 -2 37 -2 50 0 12 2 0 4 -28 4 -27 0 -38 -2 -22 -4z"/>
<path d="M2590 289 c0 -5 4 -8 9 -5 5 4 11 0 14 -6 2 -7 8 -9 13 -5 5 4 2 12
-6 17 -20 13 -30 12 -30 -1z"/>
<path d="M2953 293 c15 -2 37 -2 50 0 12 2 0 4 -28 4 -27 0 -38 -2 -22 -4z"/>
<path d="M3550 289 c0 -5 4 -8 9 -5 5 4 11 0 14 -6 2 -7 8 -9 13 -5 5 4 2 12
-6 17 -20 13 -30 12 -30 -1z"/>
<path d="M3913 293 c15 -2 37 -2 50 0 12 2 0 4 -28 4 -27 0 -38 -2 -22 -4z"/>
<path d="M4510 289 c0 -5 4 -8 9 -5 5 4 11 0 14 -6 2 -7 8 -9 13 -5 5 4 2 12
-6 17 -20 13 -30 12 -30 -1z"/>
<path d="M4873 293 c15 -2 37 -2 50 0 12 2 0 4 -28 4 -27 0 -38 -2 -22 -4z"/>
<path d="M368 283 c7 -3 16 -2 19 1 4 3 -2 6 -13 5 -11 0 -14 -3 -6 -6z"/>
<path d="M503 283 c9 -2 23 -2 30 0 6 3 -1 5 -18 5 -16 0 -22 -2 -12 -5z"/>
<path d="M730 280 c0 -5 5 -10 10 -10 6 0 10 5 10 10 0 6 -4 10 -10 10 -5 0
-10 -4 -10 -10z"/>
<path d="M930 280 c8 -5 30 -10 49 -10 45 0 37 6 -19 14 -31 4 -40 3 -30 -4z"/>
<path d="M1328 283 c7 -3 16 -2 19 1 4 3 -2 6 -13 5 -11 0 -14 -3 -6 -6z"/>
<path d="M1463 283 c9 -2 23 -2 30 0 6 3 -1 5 -18 5 -16 0 -22 -2 -12 -5z"/>
<path d="M1690 280 c0 -5 5 -10 10 -10 6 0 10 5 10 10 0 6 -4 10 -10 10 -5 0
-10 -4 -10 -10z"/>
<path d="M1890 280 c8 -5 30 -10 49 -10 45 0 37 6 -19 14 -31 4 -40 3 -30 -4z"/>
<path d="M2288 283 c7 -3 16 -2 19 1 4 3 -2 6 -13 5 -11 0 -14 -3 -6 -6z"/>
<path d="M2423 283 c9 -2 23 -2 30 0 6 3 -1 5 -18 5 -16 0 -22 -2 -12 -5z"/>
<path d="M2650 280 c0 -5 5 -10 10 -10 6 0 10 5 10 10 0 6 -4 10 -10 10 -5 0
-10 -4 -10 -10z"/>
<path d="M2850 280 c8 -5 30 -10 49 -10 45 0 37 6 -19 14 -31 4 -40 3 -30 -4z"/>
<path d="M3248 283 c7 -3 16 -2 19 1 4 3 -2 6 -13 5 -11 0 -14 -3 -6 -6z"/>
<path d="M3383 283 c9 -2 23 -2 30 0 6 3 -1 5 -18 5 -16 0 -22 -2 -12 -5z"/>
<path d="M3610 280 c0 -5 5 -10 10 -10 6 0 10 5 10 10 0 6 -4 10 -10 10 -5 0
-10 -4 -10 -10z"/>
<path d="M3810 280 c8 -5 30 -10 49 -10 45 0 37 6 -19 14 -31 4 -40 3 -30 -4z"/>
<path d="M4208 283 c7 -3 16 -2 19 1 4 3 -2 6 -13 5 -11 0 -14 -3 -6 -6z"/>
<path d="M4343 283 c9 -2 23 -2 30 0 6 3 -1 5 -18 5 -16 0 -22 -2 -12 -5z"/>
<path d="M4570 280 c0 -5 5 -10 10 -10 6 0 10 5 10 10 0 6 -4 10 -10 10 -5 0
-10 -4 -10 -10z"/>
<path d="M4770 280 c8 -5 30 -10 49 -10 45 0 37 6 -19 14 -31 4 -40 3 -30 -4z"/>
<path d="M368 263 c6 -2 18 -2 25 0 6 3 1 5 -13 5 -14 0 -19 -2 -12 -5z"/>
<path d="M875 260 c-3 -5 1 -10 9 -10 9 0 16 5 16 10 0 6 -4 10 -9 10 -6 0
-13 -4 -16 -10z"/>
<path d="M918 258 c6 -6 18 -8 28 -6 14 3 12 5 -9 10 -19 3 -25 2 -19 -4z"/>
<path d="M1328 263 c6 -2 18 -2 25 0 6 3 1 5 -13 5 -14 0 -19 -2 -12 -5z"/>
<path d="M1835 260 c-3 -5 1 -10 9 -10 9 0 16 5 16 10 0 6 -4 10 -9 10 -6 0
-13 -4 -16 -10z"/>
<path d="M1878 258 c6 -6 18 -8 28 -6 14 3 12 5 -9 10 -19 3 -25 2 -19 -4z"/>
<path d="M2288 263 c6 -2 18 -2 25 0 6 3 1 5 -13 5 -14 0 -19 -2 -12 -5z"/>
<path d="M2795 260 c-3 -5 1 -10 9 -10 9 0 16 5 16 10 0 6 -4 10 -9 10 -6 0
-13 -4 -16 -10z"/>
<path d="M2838 258 c6 -6 18 -8 28 -6 14 3 12 5 -9 10 -19 3 -25 2 -19 -4z"/>
<path d="M3248 263 c6 -2 18 -2 25 0 6 3 1 5 -13 5 -14 0 -19 -2 -12 -5z"/>
<path d="M3755 260 c-3 -5 1 -10 9 -10 9 0 16 5 16 10 0 6 -4 10 -9 10 -6 0
-13 -4 -16 -10z"/>
<path d="M3798 258 c6 -6 18 -8 28 -6 14 3 12 5 -9 10 -19 3 -25 2 -19 -4z"/>
<path d="M4208 263 c6 -2 18 -2 25 0 6 3 1 5 -13 5 -14 0 -19 -2 -12 -5z"/>
<path d="M4715 260 c-3 -5 1 -10 9 -10 9 0 16 5 16 10 0 6 -4 10 -9 10 -6 0
-13 -4 -16 -10z"/>
<path d="M4758 258 c6 -6 18 -8 28 -6 14 3 12 5 -9 10 -19 3 -25 2 -19 -4z"/>
<path d="M228 243 c12 -2 30 -2 40 0 9 3 -1 5 -23 4 -22 0 -30 -2 -17 -4z"/>
<path d="M820 240 c0 -5 12 -10 28 -10 21 0 24 2 12 10 -20 13 -40 13 -40 0z"/>
<path d="M1128 243 c6 -2 18 -2 25 0 6 3 1 5 -13 5 -14 0 -19 -2 -12 -5z"/>
<path d="M1188 243 c12 -2 30 -2 40 0 9 3 -1 5 -23 4 -22 0 -30 -2 -17 -4z"/>
<path d="M1780 240 c0 -5 12 -10 28 -10 21 0 24 2 12 10 -20 13 -40 13 -40 0z"/>
<path d="M2088 243 c6 -2 18 -2 25 0 6 3 1 5 -13 5 -14 0 -19 -2 -12 -5z"/>
<path d="M2148 243 c12 -2 30 -2 40 0 9 3 -1 5 -23 4 -22 0 -30 -2 -17 -4z"/>
<path d="M2740 240 c0 -5 12 -10 28 -10 21 0 24 2 12 10 -20 13 -40 13 -40 0z"/>
<path d="M3048 243 c6 -2 18 -2 25 0 6 3 1 5 -13 5 -14 0 -19 -2 -12 -5z"/>
<path d="M3108 243 c12 -2 30 -2 40 0 9 3 -1 5 -23 4 -22 0 -30 -2 -17 -4z"/>
<path d="M3700 240 c0 -5 12 -10 28 -10 21 0 24 2 12 10 -20 13 -40 13 -40 0z"/>
<path d="M4008 243 c6 -2 18 -2 25 0 6 3 1 5 -13 5 -14 0 -19 -2 -12 -5z"/>
<path d="M4068 243 c12 -2 30 -2 40 0 9 3 -1 5 -23 4 -22 0 -30 -2 -17 -4z"/>
<path d="M4660 240 c0 -5 12 -10 28 -10 21 0 24 2 12 10 -20 13 -40 13 -40 0z"/>
<path d="M2068 219 l-23 -5 25 -8 c41 -12 170 -17 188 -7 13 7 6 10 -28 9 -25
-1 -58 0 -75 2 l-30 2 30 8 c26 7 23 8 -17 7 -26 -1 -57 -5 -70 -8z"/>
<path d="M1523 208 c17 -6 32 -7 38 -1 5 5 -6 10 -29 10 -37 2 -37 2 -9 -9z"/>
<path d="M968 203 c6 -2 18 -2 25 0 6 3 1 5 -13 5 -14 0 -19 -2 -12 -5z"/>
<path d="M1928 203 c6 -2 18 -2 25 0 6 3 1 5 -13 5 -14 0 -19 -2 -12 -5z"/>
<path d="M2596 193 c-6 -14 -5 -15 5 -6 7 7 10 15 7 18 -3 3 -9 -2 -12 -12z"/>
<path d="M2888 203 c6 -2 18 -2 25 0 6 3 1 5 -13 5 -14 0 -19 -2 -12 -5z"/>
<path d="M3848 203 c6 -2 18 -2 25 0 6 3 1 5 -13 5 -14 0 -19 -2 -12 -5z"/>
<path d="M4808 203 c6 -2 18 -2 25 0 6 3 1 5 -13 5 -14 0 -19 -2 -12 -5z"/>
<path d="M408 193 c6 -2 18 -2 25 0 6 3 1 5 -13 5 -14 0 -19 -2 -12 -5z"/>
<path d="M2328 193 c6 -2 18 -2 25 0 6 3 1 5 -13 5 -14 0 -19 -2 -12 -5z"/>
<path d="M4248 193 c6 -2 18 -2 25 0 6 3 1 5 -13 5 -14 0 -19 -2 -12 -5z"/>
</g>
</svg>
