<?xml version="1.0" standalone="no"?>
<!DOCTYPE svg PUBLIC "-//W3C//DTD SVG 20010904//EN"
 "http://www.w3.org/TR/2001/REC-SVG-20010904/DTD/svg10.dtd">
<svg version="1.0" xmlns="http://www.w3.org/2000/svg"
 width="80.000000pt" height="15.000000pt" viewBox="0 0 80.000000 15.000000"
 preserveAspectRatio="xMidYMid meet">

<g transform="translate(0.000000,15.000000) scale(0.100000,-0.100000)"
fill="#000000" stroke="none">
<path d="M0 75 l0 -75 400 0 400 0 0 75 0 75 -400 0 -400 0 0 -75z m790 0 l0
-65 -390 0 -390 0 0 65 0 65 390 0 390 0 0 -65z"/>
<path d="M20 75 l0 -55 140 0 140 0 0 55 0 55 -140 0 -140 0 0 -55z m69 -2 c0
-16 -3 -22 -6 -15 -2 6 -11 12 -18 12 -7 0 -16 -6 -18 -12 -3 -7 -6 -1 -6 15
-1 22 3 27 24 27 21 0 25 -5 24 -27z m61 2 c0 -20 -5 -25 -25 -25 -20 0 -25 5
-25 25 0 20 5 25 25 25 20 0 25 -5 25 -25z m47 16 c10 9 13 5 12 -17 0 -23 -2
-25 -8 -10 -7 17 -8 17 -24 2 -16 -16 -17 -16 -17 10 0 22 3 25 12 16 8 -8 15
-9 25 -1z m84 0 c6 10 9 6 9 -15 0 -25 -2 -27 -16 -15 -13 10 -17 10 -25 -2
-6 -10 -9 -6 -9 15 0 25 2 27 16 15 13 -10 17 -10 25 2z m-54 -33 c-3 -8 -6
-5 -6 6 -1 11 2 17 5 13 3 -3 4 -12 1 -19z"/>
<path d="M58 83 c7 -3 16 -2 19 1 4 3 -2 6 -13 5 -11 0 -14 -3 -6 -6z"/>
<path d="M110 75 c0 -8 7 -15 15 -15 8 0 15 7 15 15 0 8 -7 15 -15 15 -8 0
-15 -7 -15 -15z"/>
<path d="M330 75 c0 -22 4 -26 23 -23 14 2 22 10 22 23 0 13 -8 21 -22 23 -19
3 -23 -1 -23 -23z m40 0 c0 -8 -7 -15 -15 -15 -8 0 -15 7 -15 15 0 8 7 15 15
15 8 0 15 -7 15 -15z"/>
<path d="M392 75 c0 -16 2 -22 5 -12 2 9 2 23 0 30 -3 6 -5 -1 -5 -18z"/>
<path d="M411 74 c1 -18 3 -22 6 -11 5 18 6 18 24 1 18 -16 19 -16 18 12 -1
18 -3 22 -6 11 -5 -18 -6 -18 -24 -1 -18 16 -19 16 -18 -12z"/>
<path d="M477 94 c-4 -4 -7 -17 -6 -28 0 -12 3 -15 6 -8 2 6 11 12 18 12 7 0
16 -6 19 -12 3 -7 4 -2 3 12 -2 24 -26 38 -40 24z m30 -10 c-3 -3 -12 -4 -19
-1 -8 3 -5 6 6 6 11 1 17 -2 13 -5z"/>
<path d="M531 75 c0 -23 2 -26 8 -12 4 10 11 18 16 18 5 0 12 -8 16 -18 6 -14
8 -12 8 11 1 22 -2 26 -12 17 -10 -8 -17 -7 -25 1 -9 9 -12 5 -11 -17z"/>
<path d="M594 85 c-4 -9 -2 -21 4 -27 15 -15 44 -1 40 19 -4 23 -36 29 -44 8z
m36 -10 c0 -8 -7 -15 -15 -15 -8 0 -15 7 -15 15 0 8 7 15 15 15 8 0 15 -7 15
-15z"/>
</g>
</svg>
